<svg width="516" height="28" viewBox="0 0 516 28" fill="none" xmlns="http://www.w3.org/2000/svg">
<path d="M2.34 22.21C1.94 22.21 1.62 22.12 1.38 21.94C1.14 21.76 1 21.52 0.96 21.22C0.92 20.92 0.98 20.58 1.14 20.2L9.27 1.96C9.47 1.48 9.72 1.14 10.02 0.939999C10.34 0.74 10.69 0.64 11.07 0.64C11.43 0.64 11.76 0.74 12.06 0.939999C12.38 1.14 12.64 1.48 12.84 1.96L20.97 20.2C21.15 20.58 21.22 20.93 21.18 21.25C21.14 21.55 21.01 21.79 20.79 21.97C20.57 22.13 20.26 22.21 19.86 22.21C19.42 22.21 19.07 22.1 18.81 21.88C18.55 21.66 18.32 21.32 18.12 20.86L16.02 16L17.43 16.84H4.65L6.03 16L3.96 20.86C3.76 21.34 3.54 21.69 3.3 21.91C3.06 22.11 2.74 22.21 2.34 22.21ZM11.01 4.3L6.48 15.04L5.73 14.32H16.32L15.63 15.04L11.07 4.3H11.01ZM25.7798 22.21C25.2998 22.21 24.9298 22.08 24.6698 21.82C24.4098 21.54 24.2798 21.16 24.2798 20.68V8.68C24.2798 8.18 24.4098 7.8 24.6698 7.54C24.9298 7.28 25.2898 7.15 25.7498 7.15C26.2298 7.15 26.5898 7.28 26.8298 7.54C27.0898 7.8 27.2198 8.18 27.2198 8.68V11.14L26.8898 10.48C27.2898 9.42 27.9098 8.59 28.7498 7.99C29.5898 7.39 30.5998 7.09 31.7798 7.09C32.9998 7.09 33.9898 7.38 34.7498 7.96C35.5098 8.54 36.0298 9.43 36.3098 10.63H35.8898C36.2698 9.53 36.9198 8.67 37.8398 8.05C38.7598 7.41 39.8298 7.09 41.0498 7.09C42.1698 7.09 43.0898 7.31 43.8098 7.75C44.5298 8.17 45.0698 8.82 45.4298 9.7C45.7898 10.56 45.9698 11.65 45.9698 12.97V20.68C45.9698 21.16 45.8298 21.54 45.5498 21.82C45.2898 22.08 44.9198 22.21 44.4398 22.21C43.9598 22.21 43.5898 22.08 43.3298 21.82C43.0698 21.54 42.9398 21.16 42.9398 20.68V13.12C42.9398 11.88 42.7198 10.97 42.2798 10.39C41.8598 9.81 41.1598 9.52 40.1798 9.52C39.0798 9.52 38.2098 9.9 37.5698 10.66C36.9298 11.42 36.6098 12.47 36.6098 13.81V20.68C36.6098 21.16 36.4798 21.54 36.2198 21.82C35.9598 22.08 35.5898 22.21 35.1098 22.21C34.6298 22.21 34.2498 22.08 33.9698 21.82C33.7098 21.54 33.5798 21.16 33.5798 20.68V13.12C33.5798 11.88 33.3698 10.97 32.9498 10.39C32.5298 9.81 31.8298 9.52 30.8498 9.52C29.7498 9.52 28.8798 9.9 28.2398 10.66C27.6198 11.42 27.3098 12.47 27.3098 13.81V20.68C27.3098 21.7 26.7998 22.21 25.7798 22.21ZM57.0762 22.27C55.4762 22.27 54.0962 21.97 52.9362 21.37C51.7962 20.75 50.9062 19.88 50.2662 18.76C49.6462 17.62 49.3362 16.27 49.3362 14.71C49.3362 13.19 49.6462 11.86 50.2662 10.72C50.8862 9.58 51.7362 8.69 52.8162 8.05C53.8962 7.41 55.1262 7.09 56.5062 7.09C57.5262 7.09 58.4362 7.26 59.2362 7.6C60.0362 7.92 60.7162 8.4 61.2762 9.04C61.8562 9.66 62.2862 10.42 62.5662 11.32C62.8662 12.22 63.0162 13.23 63.0162 14.35C63.0162 14.69 62.9162 14.95 62.7162 15.13C62.5162 15.29 62.2162 15.37 61.8162 15.37H51.7362V13.51H60.9762L60.4662 13.93C60.4662 12.93 60.3162 12.08 60.0162 11.38C59.7362 10.68 59.3062 10.15 58.7262 9.79C58.1662 9.41 57.4662 9.22 56.6262 9.22C55.6862 9.22 54.8862 9.44 54.2262 9.88C53.5862 10.32 53.0962 10.93 52.7562 11.71C52.4162 12.49 52.2462 13.4 52.2462 14.44V14.62C52.2462 16.38 52.6562 17.71 53.4762 18.61C54.3162 19.49 55.5262 19.93 57.1062 19.93C57.7062 19.93 58.3362 19.85 58.9962 19.69C59.6762 19.53 60.3162 19.26 60.9162 18.88C61.2562 18.68 61.5562 18.59 61.8162 18.61C62.0962 18.63 62.3162 18.72 62.4762 18.88C62.6562 19.04 62.7662 19.24 62.8062 19.48C62.8462 19.72 62.8062 19.97 62.6862 20.23C62.5662 20.47 62.3562 20.69 62.0562 20.89C61.3762 21.35 60.5862 21.7 59.6862 21.94C58.7862 22.16 57.9162 22.27 57.0762 22.27ZM67.8495 22.21C67.3495 22.21 66.9695 22.08 66.7095 21.82C66.4495 21.54 66.3195 21.16 66.3195 20.68V8.68C66.3195 8.18 66.4495 7.8 66.7095 7.54C66.9695 7.28 67.3295 7.15 67.7895 7.15C68.2695 7.15 68.6295 7.28 68.8695 7.54C69.1295 7.8 69.2595 8.18 69.2595 8.68V10.87H68.9595C69.2795 9.67 69.8695 8.76 70.7295 8.14C71.5895 7.52 72.6895 7.16 74.0295 7.06C74.3895 7.04 74.6695 7.13 74.8695 7.33C75.0895 7.53 75.2095 7.84 75.2295 8.26C75.2695 8.68 75.1795 9.02 74.9595 9.28C74.7395 9.52 74.3995 9.66 73.9395 9.7L73.3695 9.76C72.0695 9.88 71.0795 10.29 70.3995 10.99C69.7195 11.69 69.3795 12.65 69.3795 13.87V20.68C69.3795 21.16 69.2495 21.54 68.9895 21.82C68.7495 22.08 68.3695 22.21 67.8495 22.21ZM79.0109 22.18C78.5309 22.18 78.1609 22.04 77.9009 21.76C77.6409 21.46 77.5109 21.05 77.5109 20.53V8.83C77.5109 8.31 77.6409 7.91 77.9009 7.63C78.1609 7.35 78.5309 7.21 79.0109 7.21C79.4909 7.21 79.8609 7.35 80.1209 7.63C80.4009 7.91 80.5409 8.31 80.5409 8.83V20.53C80.5409 21.05 80.4109 21.46 80.1509 21.76C79.8909 22.04 79.5109 22.18 79.0109 22.18ZM79.0109 4.09C78.4109 4.09 77.9409 3.94 77.6009 3.64C77.2809 3.34 77.1209 2.92 77.1209 2.38C77.1209 1.82 77.2809 1.4 77.6009 1.12C77.9409 0.819999 78.4109 0.669999 79.0109 0.669999C79.6109 0.669999 80.0709 0.819999 80.3909 1.12C80.7309 1.4 80.9009 1.82 80.9009 2.38C80.9009 2.92 80.7309 3.34 80.3909 3.64C80.0709 3.94 79.6109 4.09 79.0109 4.09ZM91.2558 22.27C89.7558 22.27 88.4558 21.96 87.3558 21.34C86.2758 20.7 85.4358 19.81 84.8358 18.67C84.2358 17.51 83.9358 16.15 83.9358 14.59C83.9358 13.43 84.1058 12.39 84.4458 11.47C84.7858 10.53 85.2658 9.74 85.8858 9.1C86.5258 8.46 87.2958 7.97 88.1958 7.63C89.1158 7.27 90.1358 7.09 91.2558 7.09C91.9558 7.09 92.6858 7.2 93.4458 7.42C94.2258 7.62 94.9458 7.96 95.6058 8.44C95.8658 8.6 96.0258 8.8 96.0858 9.04C96.1658 9.26 96.1758 9.49 96.1158 9.73C96.0758 9.97 95.9658 10.18 95.7858 10.36C95.6258 10.52 95.4258 10.62 95.1858 10.66C94.9458 10.68 94.6858 10.61 94.4058 10.45C93.9258 10.11 93.4358 9.87 92.9358 9.73C92.4358 9.57 91.9558 9.49 91.4958 9.49C90.7758 9.49 90.1358 9.61 89.5758 9.85C89.0358 10.07 88.5758 10.4 88.1958 10.84C87.8158 11.26 87.5258 11.79 87.3258 12.43C87.1458 13.07 87.0558 13.8 87.0558 14.62C87.0558 16.26 87.4358 17.55 88.1958 18.49C88.9758 19.41 90.0758 19.87 91.4958 19.87C91.9558 19.87 92.4358 19.8 92.9358 19.66C93.4358 19.52 93.9258 19.28 94.4058 18.94C94.6858 18.78 94.9458 18.72 95.1858 18.76C95.4258 18.8 95.6158 18.91 95.7558 19.09C95.9158 19.25 96.0158 19.45 96.0558 19.69C96.1158 19.91 96.1058 20.14 96.0258 20.38C95.9458 20.62 95.7758 20.82 95.5158 20.98C94.8758 21.44 94.1758 21.77 93.4158 21.97C92.6758 22.17 91.9558 22.27 91.2558 22.27ZM103.373 22.27C102.353 22.27 101.433 22.07 100.613 21.67C99.8125 21.27 99.1825 20.73 98.7225 20.05C98.2625 19.37 98.0325 18.6 98.0325 17.74C98.0325 16.66 98.3025 15.81 98.8425 15.19C99.4025 14.55 100.313 14.1 101.573 13.84C102.853 13.56 104.573 13.42 106.733 13.42H108.143V15.28H106.763C105.323 15.28 104.183 15.35 103.343 15.49C102.503 15.63 101.903 15.87 101.543 16.21C101.203 16.53 101.033 16.98 101.033 17.56C101.033 18.32 101.293 18.94 101.813 19.42C102.333 19.88 103.053 20.11 103.973 20.11C104.713 20.11 105.363 19.94 105.923 19.6C106.483 19.24 106.923 18.76 107.243 18.16C107.583 17.56 107.753 16.87 107.753 16.09V12.64C107.753 11.5 107.513 10.68 107.033 10.18C106.553 9.68 105.763 9.43 104.663 9.43C104.023 9.43 103.353 9.51 102.653 9.67C101.973 9.83 101.263 10.1 100.522 10.48C100.183 10.64 99.8925 10.69 99.6525 10.63C99.4125 10.57 99.2225 10.44 99.0825 10.24C98.9425 10.02 98.8625 9.79 98.8425 9.55C98.8425 9.29 98.9025 9.04 99.0225 8.8C99.1625 8.56 99.3925 8.38 99.7125 8.26C100.593 7.84 101.463 7.54 102.323 7.36C103.183 7.18 103.993 7.09 104.753 7.09C106.093 7.09 107.193 7.3 108.053 7.72C108.933 8.14 109.583 8.78 110.003 9.64C110.423 10.5 110.633 11.61 110.633 12.97V20.68C110.633 21.16 110.513 21.54 110.273 21.82C110.033 22.08 109.683 22.21 109.223 22.21C108.783 22.21 108.433 22.08 108.173 21.82C107.913 21.54 107.783 21.16 107.783 20.68V18.73H108.053C107.893 19.47 107.593 20.11 107.153 20.65C106.733 21.17 106.203 21.57 105.563 21.85C104.923 22.13 104.193 22.27 103.373 22.27ZM116.306 22.21C115.826 22.21 115.456 22.08 115.196 21.82C114.936 21.54 114.806 21.16 114.806 20.68V8.68C114.806 8.18 114.936 7.8 115.196 7.54C115.456 7.28 115.816 7.15 116.276 7.15C116.756 7.15 117.116 7.28 117.356 7.54C117.616 7.8 117.746 8.18 117.746 8.68V11.02L117.416 10.48C117.856 9.36 118.546 8.52 119.486 7.96C120.426 7.38 121.506 7.09 122.726 7.09C123.886 7.09 124.846 7.31 125.606 7.75C126.386 8.17 126.966 8.82 127.346 9.7C127.726 10.56 127.916 11.65 127.916 12.97V20.68C127.916 21.16 127.786 21.54 127.526 21.82C127.266 22.08 126.896 22.21 126.416 22.21C125.916 22.21 125.536 22.08 125.276 21.82C125.016 21.54 124.886 21.16 124.886 20.68V13.15C124.886 11.89 124.636 10.97 124.136 10.39C123.656 9.81 122.896 9.52 121.856 9.52C120.636 9.52 119.656 9.9 118.916 10.66C118.196 11.42 117.836 12.44 117.836 13.72V20.68C117.836 21.7 117.326 22.21 116.306 22.21ZM149.811 22.27C147.671 22.27 145.841 21.83 144.321 20.95C142.801 20.07 141.631 18.82 140.811 17.2C140.011 15.56 139.611 13.63 139.611 11.41C139.611 9.75 139.841 8.26 140.301 6.94C140.761 5.6 141.421 4.46 142.281 3.52C143.161 2.56 144.231 1.83 145.491 1.33C146.771 0.829999 148.211 0.579999 149.811 0.579999C150.991 0.579999 152.121 0.739999 153.201 1.06C154.301 1.38 155.251 1.84 156.051 2.44C156.391 2.66 156.611 2.93 156.711 3.25C156.831 3.55 156.851 3.84 156.771 4.12C156.711 4.4 156.581 4.64 156.381 4.84C156.181 5.02 155.921 5.12 155.601 5.14C155.301 5.16 154.971 5.05 154.611 4.81C153.951 4.31 153.221 3.94 152.421 3.7C151.621 3.46 150.781 3.34 149.901 3.34C148.381 3.34 147.101 3.66 146.061 4.3C145.021 4.92 144.231 5.83 143.691 7.03C143.151 8.23 142.881 9.69 142.881 11.41C142.881 13.13 143.151 14.6 143.691 15.82C144.231 17.02 145.021 17.94 146.061 18.58C147.101 19.2 148.381 19.51 149.901 19.51C150.781 19.51 151.621 19.39 152.421 19.15C153.241 18.89 154.011 18.51 154.731 18.01C155.091 17.79 155.411 17.69 155.691 17.71C155.991 17.73 156.241 17.83 156.441 18.01C156.641 18.19 156.771 18.42 156.831 18.7C156.911 18.96 156.901 19.24 156.801 19.54C156.721 19.82 156.531 20.06 156.231 20.26C155.411 20.92 154.441 21.42 153.321 21.76C152.201 22.1 151.031 22.27 149.811 22.27ZM165.58 22.27C164.1 22.27 162.82 21.96 161.74 21.34C160.68 20.72 159.85 19.84 159.25 18.7C158.65 17.56 158.35 16.22 158.35 14.68C158.35 13.5 158.52 12.45 158.86 11.53C159.2 10.61 159.68 9.82 160.3 9.16C160.94 8.48 161.7 7.97 162.58 7.63C163.48 7.27 164.48 7.09 165.58 7.09C167.04 7.09 168.3 7.4 169.36 8.02C170.44 8.64 171.28 9.52 171.88 10.66C172.48 11.78 172.78 13.12 172.78 14.68C172.78 15.84 172.61 16.89 172.27 17.83C171.93 18.77 171.44 19.57 170.8 20.23C170.18 20.89 169.42 21.4 168.52 21.76C167.64 22.1 166.66 22.27 165.58 22.27ZM165.58 19.93C166.4 19.93 167.12 19.73 167.74 19.33C168.36 18.93 168.84 18.34 169.18 17.56C169.54 16.78 169.72 15.82 169.72 14.68C169.72 12.96 169.34 11.66 168.58 10.78C167.82 9.9 166.82 9.46 165.58 9.46C164.74 9.46 164.01 9.66 163.39 10.06C162.77 10.44 162.28 11.02 161.92 11.8C161.58 12.58 161.41 13.54 161.41 14.68C161.41 16.38 161.79 17.68 162.55 18.58C163.31 19.48 164.32 19.93 165.58 19.93ZM181.763 22.27C180.483 22.27 179.353 21.97 178.373 21.37C177.413 20.75 176.663 19.87 176.123 18.73C175.583 17.57 175.313 16.22 175.313 14.68C175.313 13.1 175.583 11.75 176.123 10.63C176.663 9.51 177.413 8.64 178.373 8.02C179.353 7.4 180.483 7.09 181.763 7.09C183.043 7.09 184.143 7.41 185.063 8.05C186.003 8.67 186.633 9.51 186.953 10.57H186.623V2.17C186.623 1.67 186.753 1.29 187.013 1.03C187.273 0.769999 187.643 0.64 188.123 0.64C188.603 0.64 188.973 0.769999 189.233 1.03C189.513 1.29 189.653 1.67 189.653 2.17V20.68C189.653 21.16 189.523 21.54 189.263 21.82C189.003 22.08 188.633 22.21 188.153 22.21C187.673 22.21 187.303 22.08 187.043 21.82C186.783 21.54 186.653 21.16 186.653 20.68V18.04L186.983 18.7C186.663 19.78 186.033 20.65 185.093 21.31C184.173 21.95 183.063 22.27 181.763 22.27ZM182.543 19.93C183.363 19.93 184.083 19.73 184.703 19.33C185.323 18.93 185.803 18.34 186.143 17.56C186.503 16.78 186.683 15.82 186.683 14.68C186.683 12.96 186.303 11.66 185.543 10.78C184.783 9.9 183.783 9.46 182.543 9.46C181.703 9.46 180.973 9.66 180.353 10.06C179.733 10.44 179.243 11.02 178.883 11.8C178.543 12.58 178.373 13.54 178.373 14.68C178.373 16.38 178.753 17.68 179.513 18.58C180.273 19.48 181.283 19.93 182.543 19.93ZM200.777 22.27C199.177 22.27 197.797 21.97 196.637 21.37C195.497 20.75 194.607 19.88 193.967 18.76C193.347 17.62 193.037 16.27 193.037 14.71C193.037 13.19 193.347 11.86 193.967 10.72C194.587 9.58 195.437 8.69 196.517 8.05C197.597 7.41 198.827 7.09 200.207 7.09C201.227 7.09 202.137 7.26 202.937 7.6C203.737 7.92 204.417 8.4 204.977 9.04C205.557 9.66 205.987 10.42 206.267 11.32C206.567 12.22 206.717 13.23 206.717 14.35C206.717 14.69 206.617 14.95 206.417 15.13C206.217 15.29 205.917 15.37 205.517 15.37H195.437V13.51H204.677L204.167 13.93C204.167 12.93 204.017 12.08 203.717 11.38C203.437 10.68 203.007 10.15 202.427 9.79C201.867 9.41 201.167 9.22 200.327 9.22C199.387 9.22 198.587 9.44 197.927 9.88C197.287 10.32 196.797 10.93 196.457 11.71C196.117 12.49 195.947 13.4 195.947 14.44V14.62C195.947 16.38 196.357 17.71 197.177 18.61C198.017 19.49 199.227 19.93 200.807 19.93C201.407 19.93 202.037 19.85 202.697 19.69C203.377 19.53 204.017 19.26 204.617 18.88C204.957 18.68 205.257 18.59 205.517 18.61C205.797 18.63 206.017 18.72 206.177 18.88C206.357 19.04 206.467 19.24 206.507 19.48C206.547 19.72 206.507 19.97 206.387 20.23C206.267 20.47 206.057 20.69 205.757 20.89C205.077 21.35 204.287 21.7 203.387 21.94C202.487 22.16 201.617 22.27 200.777 22.27ZM219.851 22C219.351 22 218.961 21.86 218.681 21.58C218.401 21.3 218.261 20.91 218.261 20.41V2.32C218.261 1.8 218.391 1.41 218.651 1.15C218.931 0.869998 219.321 0.729998 219.821 0.729998C220.321 0.729998 220.701 0.869998 220.961 1.15C221.241 1.41 221.381 1.8 221.381 2.32V19.33H230.681C231.121 19.33 231.461 19.45 231.701 19.69C231.941 19.91 232.061 20.23 232.061 20.65C232.061 21.07 231.941 21.4 231.701 21.64C231.461 21.88 231.121 22 230.681 22H219.851ZM239.164 22.27C238.144 22.27 237.224 22.07 236.404 21.67C235.604 21.27 234.974 20.73 234.514 20.05C234.054 19.37 233.824 18.6 233.824 17.74C233.824 16.66 234.094 15.81 234.634 15.19C235.194 14.55 236.104 14.1 237.364 13.84C238.644 13.56 240.364 13.42 242.524 13.42H243.934V15.28H242.554C241.114 15.28 239.974 15.35 239.134 15.49C238.294 15.63 237.694 15.87 237.334 16.21C236.994 16.53 236.824 16.98 236.824 17.56C236.824 18.32 237.084 18.94 237.604 19.42C238.124 19.88 238.844 20.11 239.764 20.11C240.504 20.11 241.154 19.94 241.714 19.6C242.274 19.24 242.714 18.76 243.034 18.16C243.374 17.56 243.544 16.87 243.544 16.09V12.64C243.544 11.5 243.304 10.68 242.824 10.18C242.344 9.68 241.554 9.43 240.454 9.43C239.814 9.43 239.144 9.51 238.444 9.67C237.764 9.83 237.054 10.1 236.314 10.48C235.974 10.64 235.684 10.69 235.444 10.63C235.204 10.57 235.014 10.44 234.874 10.24C234.734 10.02 234.654 9.79 234.634 9.55C234.634 9.29 234.694 9.04 234.814 8.8C234.954 8.56 235.184 8.38 235.504 8.26C236.384 7.84 237.254 7.54 238.114 7.36C238.974 7.18 239.784 7.09 240.544 7.09C241.884 7.09 242.984 7.3 243.844 7.72C244.724 8.14 245.374 8.78 245.794 9.64C246.214 10.5 246.424 11.61 246.424 12.97V20.68C246.424 21.16 246.304 21.54 246.064 21.82C245.824 22.08 245.474 22.21 245.014 22.21C244.574 22.21 244.224 22.08 243.964 21.82C243.704 21.54 243.574 21.16 243.574 20.68V18.73H243.844C243.684 19.47 243.384 20.11 242.944 20.65C242.524 21.17 241.994 21.57 241.354 21.85C240.714 22.13 239.984 22.27 239.164 22.27ZM258.457 22.27C257.177 22.27 256.067 21.95 255.127 21.31C254.187 20.65 253.557 19.78 253.237 18.7L253.567 18.16V20.68C253.567 21.16 253.437 21.54 253.177 21.82C252.917 22.08 252.557 22.21 252.097 22.21C251.617 22.21 251.247 22.08 250.987 21.82C250.727 21.54 250.597 21.16 250.597 20.68V2.17C250.597 1.67 250.727 1.29 250.987 1.03C251.247 0.769999 251.617 0.64 252.097 0.64C252.577 0.64 252.947 0.769999 253.207 1.03C253.487 1.29 253.627 1.67 253.627 2.17V10.57H253.267C253.587 9.51 254.217 8.67 255.157 8.05C256.097 7.41 257.197 7.09 258.457 7.09C259.777 7.09 260.917 7.4 261.877 8.02C262.837 8.64 263.577 9.51 264.097 10.63C264.637 11.75 264.907 13.1 264.907 14.68C264.907 16.22 264.637 17.57 264.097 18.73C263.577 19.87 262.827 20.75 261.847 21.37C260.887 21.97 259.757 22.27 258.457 22.27ZM257.707 19.93C258.547 19.93 259.277 19.73 259.897 19.33C260.517 18.93 260.997 18.34 261.337 17.56C261.677 16.78 261.847 15.82 261.847 14.68C261.847 12.96 261.467 11.66 260.707 10.78C259.967 9.9 258.967 9.46 257.707 9.46C256.887 9.46 256.157 9.66 255.517 10.06C254.897 10.44 254.417 11.02 254.077 11.8C253.737 12.58 253.567 13.54 253.567 14.68C253.567 16.38 253.947 17.68 254.707 18.58C255.467 19.48 256.467 19.93 257.707 19.93ZM280.912 22.27C279.892 22.27 278.972 22.07 278.152 21.67C277.352 21.27 276.722 20.73 276.262 20.05C275.802 19.37 275.572 18.6 275.572 17.74C275.572 16.66 275.842 15.81 276.382 15.19C276.942 14.55 277.852 14.1 279.112 13.84C280.392 13.56 282.112 13.42 284.272 13.42H285.682V15.28H284.302C282.862 15.28 281.722 15.35 280.882 15.49C280.042 15.63 279.442 15.87 279.082 16.21C278.742 16.53 278.572 16.98 278.572 17.56C278.572 18.32 278.832 18.94 279.352 19.42C279.872 19.88 280.592 20.11 281.512 20.11C282.252 20.11 282.902 19.94 283.462 19.6C284.022 19.24 284.462 18.76 284.782 18.16C285.122 17.56 285.292 16.87 285.292 16.09V12.64C285.292 11.5 285.052 10.68 284.572 10.18C284.092 9.68 283.302 9.43 282.202 9.43C281.562 9.43 280.892 9.51 280.192 9.67C279.512 9.83 278.802 10.1 278.062 10.48C277.722 10.64 277.432 10.69 277.192 10.63C276.952 10.57 276.762 10.44 276.622 10.24C276.482 10.02 276.402 9.79 276.382 9.55C276.382 9.29 276.442 9.04 276.562 8.8C276.702 8.56 276.932 8.38 277.252 8.26C278.132 7.84 279.002 7.54 279.862 7.36C280.722 7.18 281.532 7.09 282.292 7.09C283.632 7.09 284.732 7.3 285.592 7.72C286.472 8.14 287.122 8.78 287.542 9.64C287.962 10.5 288.172 11.61 288.172 12.97V20.68C288.172 21.16 288.052 21.54 287.812 21.82C287.572 22.08 287.222 22.21 286.762 22.21C286.322 22.21 285.972 22.08 285.712 21.82C285.452 21.54 285.322 21.16 285.322 20.68V18.73H285.592C285.432 19.47 285.132 20.11 284.692 20.65C284.272 21.17 283.742 21.57 283.102 21.85C282.462 22.13 281.732 22.27 280.912 22.27ZM293.845 22.21C293.365 22.21 292.995 22.08 292.735 21.82C292.475 21.54 292.345 21.16 292.345 20.68V8.68C292.345 8.18 292.475 7.8 292.735 7.54C292.995 7.28 293.355 7.15 293.815 7.15C294.295 7.15 294.655 7.28 294.895 7.54C295.155 7.8 295.285 8.18 295.285 8.68V11.02L294.955 10.48C295.395 9.36 296.085 8.52 297.025 7.96C297.965 7.38 299.045 7.09 300.265 7.09C301.425 7.09 302.385 7.31 303.145 7.75C303.925 8.17 304.505 8.82 304.885 9.7C305.265 10.56 305.455 11.65 305.455 12.97V20.68C305.455 21.16 305.325 21.54 305.065 21.82C304.805 22.08 304.435 22.21 303.955 22.21C303.455 22.21 303.075 22.08 302.815 21.82C302.555 21.54 302.425 21.16 302.425 20.68V13.15C302.425 11.89 302.175 10.97 301.675 10.39C301.195 9.81 300.435 9.52 299.395 9.52C298.175 9.52 297.195 9.9 296.455 10.66C295.735 11.42 295.375 12.44 295.375 13.72V20.68C295.375 21.7 294.865 22.21 293.845 22.21ZM315.21 22.27C313.93 22.27 312.8 21.97 311.82 21.37C310.86 20.75 310.11 19.87 309.57 18.73C309.03 17.57 308.76 16.22 308.76 14.68C308.76 13.1 309.03 11.75 309.57 10.63C310.11 9.51 310.86 8.64 311.82 8.02C312.8 7.4 313.93 7.09 315.21 7.09C316.49 7.09 317.59 7.41 318.51 8.05C319.45 8.67 320.08 9.51 320.4 10.57H320.07V2.17C320.07 1.67 320.2 1.29 320.46 1.03C320.72 0.769999 321.09 0.64 321.57 0.64C322.05 0.64 322.42 0.769999 322.68 1.03C322.96 1.29 323.1 1.67 323.1 2.17V20.68C323.1 21.16 322.97 21.54 322.71 21.82C322.45 22.08 322.08 22.21 321.6 22.21C321.12 22.21 320.75 22.08 320.49 21.82C320.23 21.54 320.1 21.16 320.1 20.68V18.04L320.43 18.7C320.11 19.78 319.48 20.65 318.54 21.31C317.62 21.95 316.51 22.27 315.21 22.27ZM315.99 19.93C316.81 19.93 317.53 19.73 318.15 19.33C318.77 18.93 319.25 18.34 319.59 17.56C319.95 16.78 320.13 15.82 320.13 14.68C320.13 12.96 319.75 11.66 318.99 10.78C318.23 9.9 317.23 9.46 315.99 9.46C315.15 9.46 314.42 9.66 313.8 10.06C313.18 10.44 312.69 11.02 312.33 11.8C311.99 12.58 311.82 13.54 311.82 14.68C311.82 16.38 312.2 17.68 312.96 18.58C313.72 19.48 314.73 19.93 315.99 19.93ZM337.095 22.21C336.635 22.21 336.275 22.08 336.015 21.82C335.775 21.56 335.655 21.2 335.655 20.74V2.11C335.655 1.63 335.785 1.27 336.045 1.03C336.305 0.769999 336.655 0.64 337.095 0.64C337.515 0.64 337.835 0.719999 338.055 0.879998C338.295 1.02 338.515 1.28 338.715 1.66L346.575 16.33H345.645L353.475 1.66C353.675 1.28 353.885 1.02 354.105 0.879998C354.325 0.719999 354.645 0.64 355.065 0.64C355.505 0.64 355.845 0.769999 356.085 1.03C356.325 1.27 356.445 1.63 356.445 2.11V20.74C356.445 21.2 356.325 21.56 356.085 21.82C355.865 22.08 355.525 22.21 355.065 22.21C354.605 22.21 354.255 22.08 354.015 21.82C353.775 21.56 353.655 21.2 353.655 20.74V5.26H354.315L347.355 18.13C347.195 18.43 347.025 18.65 346.845 18.79C346.665 18.93 346.415 19 346.095 19C345.775 19 345.515 18.93 345.315 18.79C345.115 18.63 344.935 18.41 344.775 18.13L337.755 5.23H338.475V20.74C338.475 21.2 338.355 21.56 338.115 21.82C337.895 22.08 337.555 22.21 337.095 22.21ZM365.785 22.27C364.765 22.27 363.845 22.07 363.025 21.67C362.225 21.27 361.595 20.73 361.135 20.05C360.675 19.37 360.445 18.6 360.445 17.74C360.445 16.66 360.715 15.81 361.255 15.19C361.815 14.55 362.725 14.1 363.985 13.84C365.265 13.56 366.985 13.42 369.145 13.42H370.555V15.28H369.175C367.735 15.28 366.595 15.35 365.755 15.49C364.915 15.63 364.315 15.87 363.955 16.21C363.615 16.53 363.445 16.98 363.445 17.56C363.445 18.32 363.705 18.94 364.225 19.42C364.745 19.88 365.465 20.11 366.385 20.11C367.125 20.11 367.775 19.94 368.335 19.6C368.895 19.24 369.335 18.76 369.655 18.16C369.995 17.56 370.165 16.87 370.165 16.09V12.64C370.165 11.5 369.925 10.68 369.445 10.18C368.965 9.68 368.175 9.43 367.075 9.43C366.435 9.43 365.765 9.51 365.065 9.67C364.385 9.83 363.675 10.1 362.935 10.48C362.595 10.64 362.305 10.69 362.065 10.63C361.825 10.57 361.635 10.44 361.495 10.24C361.355 10.02 361.275 9.79 361.255 9.55C361.255 9.29 361.315 9.04 361.435 8.8C361.575 8.56 361.805 8.38 362.125 8.26C363.005 7.84 363.875 7.54 364.735 7.36C365.595 7.18 366.405 7.09 367.165 7.09C368.505 7.09 369.605 7.3 370.465 7.72C371.345 8.14 371.995 8.78 372.415 9.64C372.835 10.5 373.045 11.61 373.045 12.97V20.68C373.045 21.16 372.925 21.54 372.685 21.82C372.445 22.08 372.095 22.21 371.635 22.21C371.195 22.21 370.845 22.08 370.585 21.82C370.325 21.54 370.195 21.16 370.195 20.68V18.73H370.465C370.305 19.47 370.005 20.11 369.565 20.65C369.145 21.17 368.615 21.57 367.975 21.85C367.335 22.13 366.605 22.27 365.785 22.27ZM380.521 27.61C380.161 27.61 379.861 27.51 379.621 27.31C379.401 27.13 379.271 26.88 379.231 26.56C379.211 26.26 379.271 25.93 379.411 25.57L381.451 20.98V22.27L375.841 9.22C375.701 8.86 375.651 8.52 375.691 8.2C375.731 7.88 375.881 7.63 376.141 7.45C376.401 7.25 376.751 7.15 377.191 7.15C377.571 7.15 377.871 7.24 378.091 7.42C378.311 7.6 378.511 7.91 378.691 8.35L383.221 19.54H382.381L386.971 8.35C387.151 7.89 387.361 7.58 387.601 7.42C387.841 7.24 388.171 7.15 388.591 7.15C388.951 7.15 389.231 7.25 389.431 7.45C389.651 7.63 389.781 7.88 389.821 8.2C389.881 8.5 389.831 8.83 389.671 9.19L382.171 26.44C381.971 26.9 381.741 27.21 381.481 27.37C381.241 27.53 380.921 27.61 380.521 27.61ZM402.548 22.21C402.028 22.21 401.618 22.07 401.318 21.79C401.038 21.51 400.898 21.1 400.898 20.56V2.53C400.898 1.99 401.038 1.58 401.318 1.3C401.618 0.999999 402.038 0.849999 402.578 0.849999H413.258C413.698 0.849999 414.018 0.959999 414.218 1.18C414.438 1.38 414.548 1.68 414.548 2.08C414.548 2.5 414.438 2.82 414.218 3.04C414.018 3.26 413.698 3.37 413.258 3.37H404.018V10.12H412.658C413.058 10.12 413.368 10.23 413.587 10.45C413.828 10.65 413.948 10.95 413.948 11.35C413.948 11.77 413.828 12.09 413.587 12.31C413.368 12.53 413.058 12.64 412.658 12.64H404.018V20.56C404.018 21.66 403.528 22.21 402.548 22.21ZM422.982 22.27C421.502 22.27 420.222 21.96 419.142 21.34C418.082 20.72 417.252 19.84 416.652 18.7C416.052 17.56 415.752 16.22 415.752 14.68C415.752 13.5 415.922 12.45 416.262 11.53C416.602 10.61 417.082 9.82 417.702 9.16C418.342 8.48 419.102 7.97 419.982 7.63C420.882 7.27 421.882 7.09 422.982 7.09C424.442 7.09 425.702 7.4 426.762 8.02C427.842 8.64 428.682 9.52 429.282 10.66C429.882 11.78 430.182 13.12 430.182 14.68C430.182 15.84 430.012 16.89 429.672 17.83C429.332 18.77 428.842 19.57 428.202 20.23C427.582 20.89 426.822 21.4 425.922 21.76C425.042 22.1 424.062 22.27 422.982 22.27ZM422.982 19.93C423.802 19.93 424.522 19.73 425.142 19.33C425.762 18.93 426.242 18.34 426.582 17.56C426.942 16.78 427.122 15.82 427.122 14.68C427.122 12.96 426.742 11.66 425.982 10.78C425.222 9.9 424.222 9.46 422.982 9.46C422.142 9.46 421.412 9.66 420.792 10.06C420.172 10.44 419.682 11.02 419.322 11.8C418.982 12.58 418.812 13.54 418.812 14.68C418.812 16.38 419.192 17.68 419.952 18.58C420.712 19.48 421.722 19.93 422.982 19.93ZM438.805 22.27C437.625 22.27 436.635 22.05 435.835 21.61C435.055 21.17 434.465 20.52 434.065 19.66C433.685 18.78 433.495 17.68 433.495 16.36V8.68C433.495 8.16 433.625 7.78 433.885 7.54C434.145 7.28 434.515 7.15 434.995 7.15C435.475 7.15 435.845 7.28 436.105 7.54C436.385 7.78 436.525 8.16 436.525 8.68V16.39C436.525 17.57 436.765 18.44 437.245 19C437.725 19.56 438.485 19.84 439.525 19.84C440.665 19.84 441.585 19.46 442.285 18.7C443.005 17.92 443.365 16.9 443.365 15.64V8.68C443.365 8.16 443.495 7.78 443.755 7.54C444.015 7.28 444.395 7.15 444.895 7.15C445.375 7.15 445.745 7.28 446.005 7.54C446.265 7.78 446.395 8.16 446.395 8.68V20.68C446.395 21.7 445.905 22.21 444.925 22.21C444.465 22.21 444.105 22.08 443.845 21.82C443.585 21.54 443.455 21.16 443.455 20.68V18.13L443.845 18.79C443.445 19.91 442.805 20.77 441.925 21.37C441.045 21.97 440.005 22.27 438.805 22.27ZM452.165 22.21C451.685 22.21 451.315 22.08 451.055 21.82C450.795 21.54 450.665 21.16 450.665 20.68V8.68C450.665 8.18 450.795 7.8 451.055 7.54C451.315 7.28 451.675 7.15 452.135 7.15C452.615 7.15 452.975 7.28 453.215 7.54C453.475 7.8 453.605 8.18 453.605 8.68V11.02L453.275 10.48C453.715 9.36 454.405 8.52 455.345 7.96C456.285 7.38 457.365 7.09 458.585 7.09C459.745 7.09 460.705 7.31 461.465 7.75C462.245 8.17 462.825 8.82 463.205 9.7C463.585 10.56 463.775 11.65 463.775 12.97V20.68C463.775 21.16 463.645 21.54 463.385 21.82C463.125 22.08 462.755 22.21 462.275 22.21C461.775 22.21 461.395 22.08 461.135 21.82C460.875 21.54 460.745 21.16 460.745 20.68V13.15C460.745 11.89 460.495 10.97 459.995 10.39C459.515 9.81 458.755 9.52 457.715 9.52C456.495 9.52 455.515 9.9 454.775 10.66C454.055 11.42 453.695 12.44 453.695 13.72V20.68C453.695 21.7 453.185 22.21 452.165 22.21ZM474.19 22.27C472.99 22.27 471.98 22.06 471.16 21.64C470.34 21.22 469.73 20.6 469.33 19.78C468.93 18.96 468.73 17.96 468.73 16.78V9.7H466.93C466.53 9.7 466.22 9.6 466 9.4C465.78 9.18 465.67 8.89 465.67 8.53C465.67 8.15 465.78 7.86 466 7.66C466.22 7.46 466.53 7.36 466.93 7.36H468.73V4.27C468.73 3.77 468.86 3.39 469.12 3.13C469.4 2.87 469.78 2.74 470.26 2.74C470.74 2.74 471.11 2.87 471.37 3.13C471.63 3.39 471.76 3.77 471.76 4.27V7.36H475.27C475.67 7.36 475.98 7.46 476.2 7.66C476.42 7.86 476.53 8.15 476.53 8.53C476.53 8.89 476.42 9.18 476.2 9.4C475.98 9.6 475.67 9.7 475.27 9.7H471.76V16.54C471.76 17.6 471.98 18.4 472.42 18.94C472.88 19.48 473.62 19.75 474.64 19.75C475 19.75 475.31 19.72 475.57 19.66C475.85 19.58 476.08 19.53 476.26 19.51C476.48 19.51 476.66 19.59 476.8 19.75C476.94 19.89 477.01 20.17 477.01 20.59C477.01 20.89 476.95 21.17 476.83 21.43C476.73 21.69 476.54 21.86 476.26 21.94C476.02 22.02 475.69 22.09 475.27 22.15C474.87 22.23 474.51 22.27 474.19 22.27ZM483.587 22.27C482.567 22.27 481.647 22.07 480.827 21.67C480.027 21.27 479.397 20.73 478.937 20.05C478.477 19.37 478.247 18.6 478.247 17.74C478.247 16.66 478.517 15.81 479.057 15.19C479.617 14.55 480.527 14.1 481.787 13.84C483.067 13.56 484.787 13.42 486.947 13.42H488.357V15.28H486.977C485.537 15.28 484.397 15.35 483.557 15.49C482.717 15.63 482.117 15.87 481.757 16.21C481.417 16.53 481.247 16.98 481.247 17.56C481.247 18.32 481.507 18.94 482.027 19.42C482.547 19.88 483.267 20.11 484.187 20.11C484.927 20.11 485.577 19.94 486.137 19.6C486.697 19.24 487.137 18.76 487.457 18.16C487.797 17.56 487.967 16.87 487.967 16.09V12.64C487.967 11.5 487.727 10.68 487.247 10.18C486.767 9.68 485.977 9.43 484.877 9.43C484.237 9.43 483.567 9.51 482.867 9.67C482.187 9.83 481.477 10.1 480.737 10.48C480.397 10.64 480.107 10.69 479.867 10.63C479.627 10.57 479.437 10.44 479.297 10.24C479.157 10.02 479.077 9.79 479.057 9.55C479.057 9.29 479.117 9.04 479.237 8.8C479.377 8.56 479.607 8.38 479.927 8.26C480.807 7.84 481.677 7.54 482.537 7.36C483.397 7.18 484.207 7.09 484.967 7.09C486.307 7.09 487.407 7.3 488.267 7.72C489.147 8.14 489.797 8.78 490.217 9.64C490.637 10.5 490.847 11.61 490.847 12.97V20.68C490.847 21.16 490.727 21.54 490.487 21.82C490.247 22.08 489.897 22.21 489.437 22.21C488.997 22.21 488.647 22.08 488.387 21.82C488.127 21.54 487.997 21.16 487.997 20.68V18.73H488.267C488.107 19.47 487.807 20.11 487.367 20.65C486.947 21.17 486.417 21.57 485.777 21.85C485.137 22.13 484.407 22.27 483.587 22.27ZM496.521 22.18C496.041 22.18 495.671 22.04 495.411 21.76C495.151 21.46 495.021 21.05 495.021 20.53V8.83C495.021 8.31 495.151 7.91 495.411 7.63C495.671 7.35 496.041 7.21 496.521 7.21C497.001 7.21 497.371 7.35 497.631 7.63C497.911 7.91 498.051 8.31 498.051 8.83V20.53C498.051 21.05 497.921 21.46 497.661 21.76C497.401 22.04 497.021 22.18 496.521 22.18ZM496.521 4.09C495.921 4.09 495.451 3.94 495.111 3.64C494.791 3.34 494.631 2.92 494.631 2.38C494.631 1.82 494.791 1.4 495.111 1.12C495.451 0.819999 495.921 0.669999 496.521 0.669999C497.121 0.669999 497.581 0.819999 497.901 1.12C498.241 1.4 498.411 1.82 498.411 2.38C498.411 2.92 498.241 3.34 497.901 3.64C497.581 3.94 497.121 4.09 496.521 4.09ZM503.816 22.21C503.336 22.21 502.966 22.08 502.706 21.82C502.446 21.54 502.316 21.16 502.316 20.68V8.68C502.316 8.18 502.446 7.8 502.706 7.54C502.966 7.28 503.326 7.15 503.786 7.15C504.266 7.15 504.626 7.28 504.866 7.54C505.126 7.8 505.256 8.18 505.256 8.68V11.02L504.926 10.48C505.366 9.36 506.056 8.52 506.996 7.96C507.936 7.38 509.016 7.09 510.236 7.09C511.396 7.09 512.356 7.31 513.116 7.75C513.896 8.17 514.476 8.82 514.856 9.7C515.236 10.56 515.426 11.65 515.426 12.97V20.68C515.426 21.16 515.296 21.54 515.036 21.82C514.776 22.08 514.406 22.21 513.926 22.21C513.426 22.21 513.046 22.08 512.786 21.82C512.526 21.54 512.396 21.16 512.396 20.68V13.15C512.396 11.89 512.146 10.97 511.646 10.39C511.166 9.81 510.406 9.52 509.366 9.52C508.146 9.52 507.166 9.9 506.426 10.66C505.706 11.42 505.346 12.44 505.346 13.72V20.68C505.346 21.7 504.836 22.21 503.816 22.21Z" fill="white"/>
</svg>
