<svg width="2170" height="598" viewBox="0 0 2170 598" fill="none" xmlns="http://www.w3.org/2000/svg">
<path d="M936.652 120L890.598 19.7168V99.3457C890.598 106.67 891.389 111.24 892.971 113.057C895.139 115.518 898.566 116.748 903.254 116.748H907.473V120H865.988V116.748H870.207C875.246 116.748 878.82 115.225 880.93 112.178C882.219 110.303 882.863 106.025 882.863 99.3457V21.4746C882.863 16.2012 882.277 12.3926 881.105 10.0488C880.285 8.34961 878.762 6.94336 876.535 5.83008C874.367 4.6582 870.852 4.07227 865.988 4.07227V0.820312H899.738L942.98 94.0723L985.52 0.820312H1019.27V4.07227H1015.14C1010.04 4.07227 1006.44 5.5957 1004.33 8.64258C1003.04 10.5176 1002.39 14.7949 1002.39 21.4746V99.3457C1002.39 106.67 1003.21 111.24 1004.86 113.057C1007.02 115.518 1010.45 116.748 1015.14 116.748H1019.27V120H968.645V116.748H972.863C977.961 116.748 981.535 115.225 983.586 112.178C984.875 110.303 985.52 106.025 985.52 99.3457V19.7168L939.553 120H936.652Z" fill="white"/>
<path d="M1059.96 7.32422V54.1699H1081.67C1086.65 54.1699 1090.29 53.0859 1092.57 50.918C1094.91 48.6914 1096.47 44.3262 1097.23 37.8223H1100.48V78.1641H1097.23C1097.17 73.5352 1096.55 70.1367 1095.38 67.9688C1094.27 65.8008 1092.69 64.1895 1090.64 63.1348C1088.64 62.0215 1085.66 61.4648 1081.67 61.4648H1059.96V98.9062C1059.96 104.941 1060.34 108.926 1061.11 110.859C1061.69 112.324 1062.92 113.584 1064.8 114.639C1067.38 116.045 1070.07 116.748 1072.88 116.748H1077.19V120H1026.04V116.748H1030.26C1035.18 116.748 1038.75 115.312 1040.98 112.441C1042.38 110.566 1043.09 106.055 1043.09 98.9062V21.9141C1043.09 15.8789 1042.71 11.8945 1041.95 9.96094C1041.36 8.49609 1040.16 7.23633 1038.34 6.18164C1035.82 4.77539 1033.13 4.07227 1030.26 4.07227H1026.04V0.820312H1114.72L1115.86 27.0117H1112.79C1111.26 21.4453 1109.47 17.373 1107.42 14.7949C1105.43 12.1582 1102.94 10.2539 1099.95 9.08203C1097.02 7.91016 1092.45 7.32422 1086.24 7.32422H1059.96Z" fill="white"/>
<path d="M1227.48 0.820312L1228.8 28.7695H1225.46C1224.82 23.8477 1223.94 20.332 1222.82 18.2227C1221.01 14.8242 1218.58 12.334 1215.53 10.752C1212.54 9.11133 1208.59 8.29102 1203.66 8.29102H1186.88V99.3457C1186.88 106.67 1187.67 111.24 1189.25 113.057C1191.48 115.518 1194.9 116.748 1199.53 116.748H1203.66V120H1153.13V116.748H1157.35C1162.38 116.748 1165.96 115.225 1168.07 112.178C1169.36 110.303 1170 106.025 1170 99.3457V8.29102H1155.68C1150.11 8.29102 1146.15 8.70117 1143.81 9.52148C1140.76 10.6348 1138.16 12.7734 1135.99 15.9375C1133.82 19.1016 1132.53 23.3789 1132.12 28.7695H1128.78L1130.19 0.820312H1227.48Z" fill="white"/>
<path d="M133.438 340.836L183.75 218.609H259.219V223.668H253.203C247.734 223.668 243.359 224.625 240.078 226.539C237.799 227.815 235.977 229.957 234.609 232.965C233.607 235.152 233.105 240.849 233.105 250.055V372.281C233.105 381.76 233.607 387.685 234.609 390.055C235.612 392.424 237.663 394.521 240.762 396.344C243.861 398.076 248.008 398.941 253.203 398.941H259.219V404H162.422V398.941H168.438C173.906 398.941 178.281 397.984 181.562 396.07C183.841 394.794 185.664 392.607 187.031 389.508C188.034 387.32 188.535 381.578 188.535 372.281V234.879L117.441 404H114.16L41.9727 236.109V366.676C41.9727 375.79 42.2005 381.396 42.6562 383.492C43.8411 388.049 46.3932 391.786 50.3125 394.703C54.3229 397.529 60.5664 398.941 69.043 398.941V404H5.60547V398.941H7.51953C11.6211 399.033 15.4492 398.395 19.0039 397.027C22.5586 395.569 25.2474 393.655 27.0703 391.285C28.8932 388.915 30.306 385.589 31.3086 381.305C31.4909 380.302 31.582 375.654 31.582 367.359V250.055C31.582 240.667 31.0807 234.833 30.0781 232.555C29.0755 230.185 27.0247 228.134 23.9258 226.402C20.8268 224.579 16.6797 223.668 11.4844 223.668H5.60547V218.609H81.3477L133.438 340.836Z" fill="white"/>
<path d="M380.898 351.227H315.41L307.617 369.273C305.065 375.289 303.789 380.257 303.789 384.176C303.789 389.371 305.885 393.199 310.078 395.66C312.539 397.118 318.6 398.212 328.262 398.941V404H266.602V398.941C273.255 397.939 278.724 395.204 283.008 390.738C287.292 386.181 292.578 376.839 298.867 362.711L365.176 214.781H367.773L434.629 366.812C441.009 381.214 446.25 390.283 450.352 394.02C453.451 396.845 457.826 398.486 463.477 398.941V404H373.789V398.941H377.48C384.681 398.941 389.74 397.939 392.656 395.934C394.661 394.475 395.664 392.379 395.664 389.645C395.664 388.004 395.391 386.318 394.844 384.586C394.661 383.766 393.294 380.348 390.742 374.332L380.898 351.227ZM376.25 341.109L348.633 277.262L320.195 341.109H376.25Z" fill="white"/>
<path d="M640.117 218.609V223.668C634.01 224.488 629.316 226.266 626.035 229C621.478 232.828 614.277 243.264 604.434 260.309L564.238 327.438V372.281C564.238 381.852 564.74 387.822 565.742 390.191C566.745 392.47 568.704 394.521 571.621 396.344C574.629 398.076 578.594 398.941 583.516 398.941H593.906V404H489.863V398.941H499.57C505.039 398.941 509.368 397.984 512.559 396.07C514.928 394.794 516.797 392.607 518.164 389.508C519.167 387.32 519.668 381.578 519.668 372.281V335.094L476.055 255.66C467.396 239.983 461.289 230.777 457.734 228.043C454.18 225.217 449.44 223.759 443.516 223.668V218.609H532.383V223.668H528.418C523.04 223.668 519.258 224.443 517.07 225.992C514.974 227.542 513.926 229.182 513.926 230.914C513.926 234.195 517.572 242.444 524.863 255.66L558.359 317.047L591.719 261.129C600.013 247.457 604.16 238.388 604.16 233.922C604.16 231.461 602.975 229.41 600.605 227.77C597.507 225.491 591.81 224.124 583.516 223.668V218.609H640.117Z" fill="white"/>
<path d="M779.98 229.273V305.426H785.312C793.516 305.426 800.215 304.195 805.41 301.734C810.605 299.273 814.98 295.126 818.535 289.293C822.181 283.46 824.551 275.576 825.645 265.641H830.43V358.746H825.645C823.913 341.155 819.173 329.579 811.426 324.02C803.77 318.368 795.065 315.543 785.312 315.543H779.98V372.281C779.98 381.76 780.482 387.685 781.484 390.055C782.578 392.424 784.629 394.521 787.637 396.344C790.736 398.076 794.883 398.941 800.078 398.941H806.23V404H709.297V398.941H715.449C720.827 398.941 725.156 397.984 728.438 396.07C730.807 394.794 732.63 392.607 733.906 389.508C734.909 387.32 735.41 381.578 735.41 372.281V250.328C735.41 240.849 734.909 234.924 733.906 232.555C732.904 230.185 730.853 228.134 727.754 226.402C724.746 224.579 720.645 223.668 715.449 223.668H709.297V218.609H865.703V271.793H860.098C858.822 259.306 855.54 250.055 850.254 244.039C845.059 238.023 837.493 233.785 827.559 231.324C822.09 229.957 811.973 229.273 797.207 229.273H779.98Z" fill="white"/>
<path d="M982.324 216.012C1011.86 214.918 1035.83 223.531 1054.24 241.852C1072.74 260.172 1081.99 283.095 1081.99 310.621C1081.99 334.137 1075.11 354.827 1061.35 372.691C1043.12 396.389 1017.37 408.238 984.102 408.238C950.742 408.238 924.948 396.936 906.719 374.332C892.318 356.467 885.117 335.276 885.117 310.758C885.117 283.232 894.46 260.309 913.145 241.988C931.921 223.577 954.98 214.918 982.324 216.012ZM983.965 224.762C967.012 224.762 954.115 233.421 945.273 250.738C938.073 264.957 934.473 285.374 934.473 311.988C934.473 343.616 940.033 366.995 951.152 382.125C958.9 392.698 969.746 397.984 983.691 397.984C993.079 397.984 1000.92 395.706 1007.21 391.148C1015.23 385.315 1021.47 376.018 1025.94 363.258C1030.4 350.406 1032.64 333.681 1032.64 313.082C1032.64 288.564 1030.36 270.243 1025.8 258.121C1021.24 245.908 1015.41 237.294 1008.3 232.281C1001.28 227.268 993.171 224.762 983.965 224.762Z" fill="white"/>
<path d="M1098.67 218.609H1194.38V223.668H1189.59C1182.39 223.668 1177.42 224.443 1174.69 225.992C1172.04 227.451 1170.13 229.501 1168.95 232.145C1167.85 234.788 1167.3 241.396 1167.3 251.969V342.75C1167.3 359.339 1168.54 370.322 1171 375.699C1173.55 381.077 1177.7 385.543 1183.44 389.098C1189.18 392.652 1196.43 394.43 1205.18 394.43C1215.2 394.43 1223.72 392.197 1230.74 387.73C1237.85 383.173 1243.14 376.93 1246.6 369C1250.16 361.07 1251.93 347.262 1251.93 327.574V251.969C1251.93 243.674 1251.07 237.75 1249.34 234.195C1247.6 230.641 1245.42 228.18 1242.77 226.812C1238.67 224.716 1232.88 223.668 1225.41 223.668V218.609H1289.53V223.668H1285.7C1280.51 223.668 1276.18 224.716 1272.71 226.812C1269.25 228.909 1266.74 232.053 1265.2 236.246C1264.01 239.163 1263.42 244.404 1263.42 251.969V322.379C1263.42 344.163 1261.96 359.885 1259.04 369.547C1256.22 379.208 1249.24 388.095 1238.12 396.207C1227.01 404.319 1211.83 408.375 1192.6 408.375C1176.56 408.375 1164.16 406.233 1155.41 401.949C1143.47 396.116 1135.04 388.642 1130.12 379.527C1125.2 370.413 1122.73 358.154 1122.73 342.75V251.969C1122.73 241.305 1122.14 234.697 1120.96 232.145C1119.77 229.501 1117.72 227.405 1114.8 225.855C1111.89 224.306 1106.51 223.577 1098.67 223.668V218.609Z" fill="white"/>
<path d="M1364.18 218.609L1455.64 333.59V253.883C1455.64 242.763 1454.05 235.243 1450.86 231.324C1446.48 226.038 1439.15 223.486 1428.85 223.668V218.609H1490.1V223.668C1482.26 224.671 1476.97 225.992 1474.24 227.633C1471.6 229.182 1469.5 231.78 1467.95 235.426C1466.49 238.98 1465.76 245.133 1465.76 253.883V408.238H1461.11L1335.74 253.883V371.734C1335.74 382.398 1338.16 389.599 1342.99 393.336C1347.91 397.073 1353.52 398.941 1359.8 398.941H1364.18V404H1298.42V398.941C1308.63 398.85 1315.74 396.754 1319.75 392.652C1323.76 388.551 1325.76 381.578 1325.76 371.734V240.895L1321.8 235.973C1317.88 231.051 1314.41 227.815 1311.41 226.266C1308.4 224.716 1304.07 223.85 1298.42 223.668V218.609H1364.18Z" fill="white"/>
<path d="M1673.44 218.609V268.785H1668.52C1665.6 257.21 1662.36 248.915 1658.81 243.902C1655.25 238.798 1650.38 234.742 1644.18 231.734C1640.72 230.094 1634.65 229.273 1626 229.273H1612.19V372.281C1612.19 381.76 1612.69 387.685 1613.69 390.055C1614.79 392.424 1616.84 394.521 1619.84 396.344C1622.94 398.076 1627.14 398.941 1632.42 398.941H1638.57V404H1541.5V398.941H1547.66C1553.03 398.941 1557.36 397.984 1560.64 396.07C1563.01 394.794 1564.88 392.607 1566.25 389.508C1567.25 387.32 1567.75 381.578 1567.75 372.281V229.273H1554.36C1541.87 229.273 1532.8 231.917 1527.15 237.203C1519.22 244.586 1514.21 255.113 1512.11 268.785H1506.91V218.609H1673.44Z" fill="white"/>
<path d="M1779.26 351.227H1713.77L1705.98 369.273C1703.42 375.289 1702.15 380.257 1702.15 384.176C1702.15 389.371 1704.24 393.199 1708.44 395.66C1710.9 397.118 1716.96 398.212 1726.62 398.941V404H1664.96V398.941C1671.61 397.939 1677.08 395.204 1681.37 390.738C1685.65 386.181 1690.94 376.839 1697.23 362.711L1763.54 214.781H1766.13L1832.99 366.812C1839.37 381.214 1844.61 390.283 1848.71 394.02C1851.81 396.845 1856.18 398.486 1861.84 398.941V404H1772.15V398.941H1775.84C1783.04 398.941 1788.1 397.939 1791.02 395.934C1793.02 394.475 1794.02 392.379 1794.02 389.645C1794.02 388.004 1793.75 386.318 1793.2 384.586C1793.02 383.766 1791.65 380.348 1789.1 374.332L1779.26 351.227ZM1774.61 341.109L1746.99 277.262L1718.55 341.109H1774.61Z" fill="white"/>
<path d="M1967.66 398.941V404H1870.72V398.941H1876.88C1882.25 398.941 1886.58 397.984 1889.86 396.07C1892.23 394.794 1894.06 392.607 1895.33 389.508C1896.33 387.32 1896.84 381.578 1896.84 372.281V250.328C1896.84 240.849 1896.33 234.924 1895.33 232.555C1894.33 230.185 1892.28 228.134 1889.18 226.402C1886.17 224.579 1882.07 223.668 1876.88 223.668H1870.72V218.609H1967.66V223.668H1961.5C1956.13 223.668 1951.8 224.625 1948.52 226.539C1946.15 227.815 1944.28 230.003 1942.91 233.102C1941.91 235.289 1941.41 241.031 1941.41 250.328V372.281C1941.41 381.76 1941.91 387.685 1942.91 390.055C1944 392.424 1946.05 394.521 1949.06 396.344C1952.16 398.076 1956.31 398.941 1961.5 398.941H1967.66Z" fill="white"/>
<path d="M2043.95 218.609L2135.41 333.59V253.883C2135.41 242.763 2133.82 235.243 2130.62 231.324C2126.25 226.038 2118.91 223.486 2108.61 223.668V218.609H2169.86V223.668C2162.02 224.671 2156.74 225.992 2154 227.633C2151.36 229.182 2149.26 231.78 2147.71 235.426C2146.26 238.98 2145.53 245.133 2145.53 253.883V408.238H2140.88L2015.51 253.883V371.734C2015.51 382.398 2017.92 389.599 2022.75 393.336C2027.68 397.073 2033.28 398.941 2039.57 398.941H2043.95V404H1978.18V398.941C1988.39 398.85 1995.5 396.754 1999.51 392.652C2003.52 388.551 2005.53 381.578 2005.53 371.734V240.895L2001.56 235.973C1997.64 231.051 1994.18 227.815 1991.17 226.266C1988.16 224.716 1983.83 223.85 1978.18 223.668V218.609H2043.95Z" fill="white"/>
<path d="M760.705 576.381C760.705 574.558 760.295 572.872 759.475 571.322C758.7 569.727 757.082 568.292 754.621 567.016C752.206 565.694 748.56 564.555 743.684 563.598C739.582 562.732 735.868 561.706 732.541 560.521C729.26 559.337 726.457 557.901 724.133 556.215C721.854 554.529 720.1 552.546 718.869 550.268C717.639 547.989 717.023 545.323 717.023 542.27C717.023 539.353 717.661 536.596 718.938 533.998C720.259 531.4 722.105 529.099 724.475 527.094C726.89 525.089 729.784 523.516 733.156 522.377C736.529 521.238 740.288 520.668 744.436 520.668C750.36 520.668 755.419 521.716 759.611 523.812C763.804 525.909 767.017 528.712 769.25 532.221C771.483 535.684 772.6 539.535 772.6 543.773H759.953C759.953 541.723 759.338 539.74 758.107 537.826C756.923 535.867 755.168 534.249 752.844 532.973C750.565 531.697 747.762 531.059 744.436 531.059C740.926 531.059 738.078 531.605 735.891 532.699C733.749 533.747 732.176 535.092 731.174 536.732C730.217 538.373 729.738 540.105 729.738 541.928C729.738 543.295 729.966 544.525 730.422 545.619C730.923 546.667 731.789 547.647 733.02 548.559C734.25 549.424 735.982 550.245 738.215 551.02C740.448 551.794 743.296 552.569 746.76 553.344C752.821 554.711 757.811 556.352 761.73 558.266C765.65 560.18 768.566 562.527 770.48 565.307C772.395 568.087 773.352 571.459 773.352 575.424C773.352 578.66 772.668 581.622 771.301 584.311C769.979 586.999 768.042 589.324 765.49 591.283C762.984 593.197 759.976 594.701 756.467 595.795C753.003 596.843 749.107 597.367 744.777 597.367C738.26 597.367 732.746 596.205 728.234 593.881C723.723 591.557 720.305 588.549 717.98 584.857C715.656 581.166 714.494 577.27 714.494 573.168H727.209C727.391 576.632 728.394 579.389 730.217 581.439C732.04 583.445 734.273 584.88 736.916 585.746C739.559 586.566 742.18 586.977 744.777 586.977C748.241 586.977 751.135 586.521 753.459 585.609C755.829 584.698 757.629 583.445 758.859 581.85C760.09 580.255 760.705 578.432 760.705 576.381Z" fill="white"/>
<path d="M803.703 522.035V596H790.988V522.035H803.703ZM790.031 502.416C790.031 500.365 790.646 498.633 791.877 497.221C793.153 495.808 795.021 495.102 797.482 495.102C799.898 495.102 801.743 495.808 803.02 497.221C804.341 498.633 805.002 500.365 805.002 502.416C805.002 504.376 804.341 506.062 803.02 507.475C801.743 508.842 799.898 509.525 797.482 509.525C795.021 509.525 793.153 508.842 791.877 507.475C790.646 506.062 790.031 504.376 790.031 502.416Z" fill="white"/>
<path d="M836.652 537.826V596H824.006V522.035H835.969L836.652 537.826ZM833.645 556.215L828.381 556.01C828.426 550.951 829.178 546.28 830.637 541.996C832.095 537.667 834.146 533.907 836.789 530.717C839.432 527.527 842.577 525.066 846.223 523.334C849.914 521.557 853.993 520.668 858.459 520.668C862.105 520.668 865.386 521.169 868.303 522.172C871.219 523.129 873.703 524.678 875.754 526.82C877.85 528.962 879.445 531.742 880.539 535.16C881.633 538.533 882.18 542.657 882.18 547.533V596H869.465V547.396C869.465 543.523 868.895 540.424 867.756 538.1C866.617 535.73 864.953 534.021 862.766 532.973C860.578 531.879 857.889 531.332 854.699 531.332C851.555 531.332 848.684 531.993 846.086 533.314C843.534 534.636 841.324 536.459 839.455 538.783C837.632 541.107 836.197 543.773 835.148 546.781C834.146 549.743 833.645 552.888 833.645 556.215Z" fill="white"/>
<path d="M930.988 586.977C933.996 586.977 936.776 586.361 939.328 585.131C941.88 583.9 943.977 582.214 945.617 580.072C947.258 577.885 948.192 575.401 948.42 572.621H960.451C960.223 576.996 958.742 581.075 956.008 584.857C953.319 588.594 949.787 591.625 945.412 593.949C941.037 596.228 936.229 597.367 930.988 597.367C925.428 597.367 920.575 596.387 916.428 594.428C912.326 592.468 908.908 589.779 906.174 586.361C903.485 582.943 901.457 579.024 900.09 574.604C898.768 570.137 898.107 565.421 898.107 560.453V557.582C898.107 552.615 898.768 547.921 900.09 543.5C901.457 539.034 903.485 535.092 906.174 531.674C908.908 528.256 912.326 525.567 916.428 523.607C920.575 521.648 925.428 520.668 930.988 520.668C936.776 520.668 941.835 521.853 946.164 524.223C950.493 526.547 953.889 529.737 956.35 533.793C958.856 537.803 960.223 542.361 960.451 547.465H948.42C948.192 544.411 947.326 541.654 945.822 539.193C944.364 536.732 942.359 534.773 939.807 533.314C937.3 531.811 934.361 531.059 930.988 531.059C927.115 531.059 923.856 531.833 921.213 533.383C918.615 534.887 916.542 536.938 914.992 539.535C913.488 542.087 912.395 544.936 911.711 548.08C911.073 551.179 910.754 554.346 910.754 557.582V560.453C910.754 563.689 911.073 566.879 911.711 570.023C912.349 573.168 913.42 576.016 914.924 578.568C916.473 581.12 918.547 583.171 921.145 584.721C923.788 586.225 927.069 586.977 930.988 586.977Z" fill="white"/>
<path d="M1005.36 597.367C1000.21 597.367 995.542 596.501 991.35 594.77C987.202 592.992 983.625 590.508 980.617 587.318C977.655 584.128 975.376 580.346 973.781 575.971C972.186 571.596 971.389 566.811 971.389 561.615V558.744C971.389 552.729 972.277 547.374 974.055 542.68C975.832 537.94 978.247 533.93 981.301 530.648C984.354 527.367 987.818 524.883 991.691 523.197C995.565 521.511 999.576 520.668 1003.72 520.668C1009.01 520.668 1013.57 521.579 1017.39 523.402C1021.27 525.225 1024.44 527.777 1026.9 531.059C1029.36 534.294 1031.18 538.122 1032.37 542.543C1033.55 546.918 1034.14 551.703 1034.14 556.898V562.572H978.908V552.25H1021.5V551.293C1021.31 548.012 1020.63 544.822 1019.45 541.723C1018.31 538.624 1016.48 536.072 1013.98 534.066C1011.47 532.061 1008.05 531.059 1003.72 531.059C1000.85 531.059 998.208 531.674 995.793 532.904C993.378 534.089 991.304 535.867 989.572 538.236C987.84 540.606 986.496 543.5 985.539 546.918C984.582 550.336 984.104 554.278 984.104 558.744V561.615C984.104 565.124 984.582 568.428 985.539 571.527C986.542 574.581 987.977 577.27 989.846 579.594C991.76 581.918 994.061 583.741 996.75 585.062C999.484 586.384 1002.58 587.045 1006.05 587.045C1010.51 587.045 1014.3 586.133 1017.39 584.311C1020.49 582.488 1023.21 580.049 1025.53 576.996L1033.19 583.08C1031.59 585.495 1029.56 587.797 1027.1 589.984C1024.64 592.172 1021.61 593.949 1018.01 595.316C1014.46 596.684 1010.24 597.367 1005.36 597.367Z" fill="white"/>
<path d="M1147.48 585.609V596H1082.34V586.908L1114.94 550.609C1118.95 546.143 1122.05 542.361 1124.24 539.262C1126.47 536.117 1128.02 533.314 1128.89 530.854C1129.8 528.347 1130.26 525.795 1130.26 523.197C1130.26 519.916 1129.57 516.954 1128.21 514.311C1126.88 511.622 1124.92 509.48 1122.33 507.885C1119.73 506.29 1116.58 505.492 1112.89 505.492C1108.47 505.492 1104.78 506.358 1101.82 508.09C1098.9 509.776 1096.71 512.146 1095.26 515.199C1093.8 518.253 1093.07 521.762 1093.07 525.727H1080.42C1080.42 520.121 1081.65 514.994 1084.11 510.346C1086.57 505.697 1090.22 502.006 1095.05 499.271C1099.88 496.492 1105.83 495.102 1112.89 495.102C1119.18 495.102 1124.56 496.218 1129.03 498.451C1133.49 500.639 1136.91 503.738 1139.28 507.748C1141.69 511.713 1142.9 516.361 1142.9 521.693C1142.9 524.61 1142.4 527.572 1141.4 530.58C1140.44 533.542 1139.1 536.505 1137.37 539.467C1135.68 542.429 1133.7 545.346 1131.42 548.217C1129.18 551.088 1126.79 553.913 1124.24 556.693L1097.58 585.609H1147.48Z" fill="white"/>
<path d="M1223.5 538.305V553.48C1223.5 561.638 1222.77 568.52 1221.31 574.125C1219.85 579.73 1217.76 584.242 1215.02 587.66C1212.29 591.078 1208.98 593.562 1205.11 595.111C1201.28 596.615 1196.95 597.367 1192.12 597.367C1188.29 597.367 1184.76 596.889 1181.53 595.932C1178.29 594.975 1175.37 593.448 1172.78 591.352C1170.22 589.21 1168.04 586.43 1166.21 583.012C1164.39 579.594 1163 575.447 1162.04 570.57C1161.09 565.694 1160.61 559.997 1160.61 553.48V538.305C1160.61 530.147 1161.34 523.311 1162.79 517.797C1164.3 512.283 1166.42 507.862 1169.15 504.535C1171.89 501.163 1175.17 498.747 1179 497.289C1182.87 495.831 1187.2 495.102 1191.98 495.102C1195.86 495.102 1199.41 495.58 1202.65 496.537C1205.93 497.449 1208.85 498.93 1211.4 500.98C1213.95 502.986 1216.12 505.674 1217.89 509.047C1219.72 512.374 1221.11 516.452 1222.06 521.283C1223.02 526.114 1223.5 531.788 1223.5 538.305ZM1210.78 555.531V536.186C1210.78 531.719 1210.51 527.8 1209.96 524.428C1209.46 521.01 1208.71 518.093 1207.71 515.678C1206.7 513.262 1205.43 511.303 1203.88 509.799C1202.38 508.295 1200.62 507.201 1198.62 506.518C1196.66 505.788 1194.45 505.424 1191.98 505.424C1188.98 505.424 1186.31 505.993 1183.99 507.133C1181.66 508.227 1179.7 509.981 1178.11 512.396C1176.56 514.812 1175.37 517.979 1174.55 521.898C1173.73 525.818 1173.32 530.58 1173.32 536.186V555.531C1173.32 559.997 1173.57 563.939 1174.07 567.357C1174.62 570.775 1175.42 573.738 1176.47 576.244C1177.51 578.705 1178.79 580.733 1180.29 582.328C1181.8 583.923 1183.53 585.108 1185.49 585.883C1187.5 586.612 1189.71 586.977 1192.12 586.977C1195.22 586.977 1197.93 586.384 1200.26 585.199C1202.58 584.014 1204.52 582.169 1206.07 579.662C1207.66 577.11 1208.85 573.852 1209.62 569.887C1210.4 565.876 1210.78 561.091 1210.78 555.531Z" fill="white"/>
<path d="M1281.33 495.922V596H1268.68V511.713L1243.19 521.01V509.594L1279.35 495.922H1281.33Z" fill="white"/>
<path d="M1381 538.305V553.48C1381 561.638 1380.27 568.52 1378.81 574.125C1377.35 579.73 1375.26 584.242 1372.52 587.66C1369.79 591.078 1366.48 593.562 1362.61 595.111C1358.78 596.615 1354.45 597.367 1349.62 597.367C1345.79 597.367 1342.26 596.889 1339.03 595.932C1335.79 594.975 1332.87 593.448 1330.28 591.352C1327.72 589.21 1325.54 586.43 1323.71 583.012C1321.89 579.594 1320.5 575.447 1319.54 570.57C1318.59 565.694 1318.11 559.997 1318.11 553.48V538.305C1318.11 530.147 1318.84 523.311 1320.29 517.797C1321.8 512.283 1323.92 507.862 1326.65 504.535C1329.39 501.163 1332.67 498.747 1336.5 497.289C1340.37 495.831 1344.7 495.102 1349.48 495.102C1353.36 495.102 1356.91 495.58 1360.15 496.537C1363.43 497.449 1366.35 498.93 1368.9 500.98C1371.45 502.986 1373.62 505.674 1375.39 509.047C1377.22 512.374 1378.61 516.452 1379.56 521.283C1380.52 526.114 1381 531.788 1381 538.305ZM1368.28 555.531V536.186C1368.28 531.719 1368.01 527.8 1367.46 524.428C1366.96 521.01 1366.21 518.093 1365.21 515.678C1364.2 513.262 1362.93 511.303 1361.38 509.799C1359.88 508.295 1358.12 507.201 1356.12 506.518C1354.16 505.788 1351.95 505.424 1349.48 505.424C1346.48 505.424 1343.81 505.993 1341.49 507.133C1339.16 508.227 1337.2 509.981 1335.61 512.396C1334.06 514.812 1332.87 517.979 1332.05 521.898C1331.23 525.818 1330.82 530.58 1330.82 536.186V555.531C1330.82 559.997 1331.07 563.939 1331.57 567.357C1332.12 570.775 1332.92 573.738 1333.97 576.244C1335.01 578.705 1336.29 580.733 1337.79 582.328C1339.3 583.923 1341.03 585.108 1342.99 585.883C1345 586.612 1347.21 586.977 1349.62 586.977C1352.72 586.977 1355.43 586.384 1357.76 585.199C1360.08 584.014 1362.02 582.169 1363.57 579.662C1365.16 577.11 1366.35 573.852 1367.12 569.887C1367.9 565.876 1368.28 561.091 1368.28 555.531Z" fill="white"/>
<line x1="1234" y1="57" x2="2098" y2="57" stroke="white" stroke-width="6"/>
<line y1="57" x2="863" y2="57" stroke="white" stroke-width="6"/>
</svg>
