<svg width="318" height="83" viewBox="0 0 318 83" fill="none" xmlns="http://www.w3.org/2000/svg">
<g clip-path="url(#clip0_6065_2710)">
<path d="M77.6384 36.3632H50.2048C49.3368 36.3632 48.4167 35.6954 48.151 34.8608L39.6705 8.62814C39.4049 7.79823 38.9733 7.79823 38.7077 8.62814L30.2367 34.8608C29.9663 35.6907 29.0462 36.3632 28.1735 36.3632H0.749377C-0.118594 36.3632 -0.256141 36.7781 0.450568 37.2885L22.6384 53.505C23.3403 54.0153 23.6961 55.098 23.4257 55.9327L14.9452 82.1653C14.6749 82.9904 15.0306 83.2528 15.7326 82.7329L37.9204 66.5259C38.6223 66.0108 39.7559 66.0108 40.4626 66.5259L62.6552 82.7424C63.3524 83.2528 63.7034 82.9952 63.4378 82.1653L54.962 55.9327C54.6964 55.1028 55.0379 54.0153 55.7446 53.505L77.9372 37.2885C78.6344 36.7781 78.5016 36.3632 77.6384 36.3632Z" fill="white"/>
<path d="M104.593 4.89359L95.0262 35.7718H102.141L104.014 28.4266H113.254L115.118 35.7718H122.488L112.922 4.89359H104.588H104.593ZM105.404 22.9846L106.13 20.1371C106.907 17.056 107.761 13.4359 108.511 10.1783H108.7C109.44 13.4359 110.375 17.0512 111.152 20.1371L111.873 22.9846H105.404Z" fill="white"/>
<path d="M144.714 11.6997C142.039 11.6997 140.388 13.4216 139.544 15.544C138.984 13.0257 137.505 11.6997 135.479 11.6997C132.771 11.6997 131.291 13.2689 130.419 15.1625H130.257L129.755 12.2673H124.537V35.7718H131.121V19.9129C131.742 18.3628 132.335 17.6235 133.189 17.6235C134.104 17.6235 134.526 18.3151 134.526 19.7746V35.7718H139.943V19.9129C140.588 18.3628 141.199 17.6235 142.086 17.6235C142.973 17.6235 143.348 18.3151 143.348 19.7746V35.7718H149.931V19.2834C149.931 14.5853 148.048 11.695 144.709 11.695L144.714 11.6997Z" fill="white"/>
<path d="M165.93 11.6997C159.669 11.6997 153.768 16.3167 153.768 24.01C153.768 31.7033 159.441 36.3441 166.726 36.3441C169.857 36.3441 173.324 35.3186 175.994 33.5968L173.699 29.3996C171.626 30.4537 169.795 31.0308 167.68 31.0308C163.852 31.0308 161.381 29.4998 160.693 26.1038H176.649C176.744 25.5219 176.938 24.258 176.938 22.9798C176.938 16.5885 173.144 11.6997 165.934 11.6997H165.93ZM160.764 21.4297C161.462 18.4773 163.435 16.9987 166.157 16.9987C168.88 16.9987 170.431 18.5154 170.786 21.4297H160.764Z" fill="white"/>
<path d="M191.3 17.4041H191.139L190.593 12.2625H184.892V35.767H191.831V23.5378C193.852 19.3215 196.83 17.8048 199.723 17.8048C201.445 17.8048 202.399 18.0433 203.864 18.4964L205.268 12.6346C203.921 12.0241 202.816 11.6854 200.776 11.6854C197.044 11.6854 193.6 13.5503 191.3 17.3946V17.4041Z" fill="white"/>
<path d="M223.989 0C221.314 0 219.383 1.77905 219.383 4.33077C219.383 6.88248 221.314 8.59476 223.989 8.59476C226.664 8.59476 228.594 6.89679 228.594 4.33077C228.594 1.76474 226.664 0 223.989 0Z" fill="white"/>
<path d="M211.424 17.7285H220.835V35.7718H227.774V12.2673H211.424V17.7285Z" fill="white"/>
<path d="M252.172 36.3441C255.359 36.3441 258.959 35.2566 261.776 32.8814L258.978 28.4791C257.299 29.6476 255.283 30.7208 252.831 30.7208C248.994 30.7208 246.262 28.1023 246.262 24.0386C246.262 19.975 249.041 17.3326 253.059 17.3326C254.818 17.3326 256.455 17.9145 258.238 19.2214L261.43 14.8954C259.476 13.0114 256.369 11.7045 252.679 11.7045C245.479 11.7045 239.162 16.2165 239.162 24.0386C239.162 31.8607 244.806 36.3489 252.172 36.3489V36.3441Z" fill="white"/>
<path d="M278.922 11.6997C274.952 11.6997 271.22 13.0209 267.98 14.881L270.456 19.4503C273.088 18.1243 275.327 17.2467 277.58 17.2467C280.72 17.2467 282.295 18.5345 282.537 20.6331C271.49 21.3056 267.16 23.9909 267.16 29.2565C267.16 33.2105 270.115 36.3393 274.848 36.3393C277.85 36.3393 280.772 34.9084 283.134 33.1246H283.31L283.808 35.7717H289.476V22.3359C289.476 15.1338 285.496 11.6997 278.922 11.6997ZM282.537 28.6985C280.881 29.9863 279.122 30.9497 277.039 30.9497C275.08 30.9497 273.814 30.2152 273.814 28.7032C273.814 26.6953 275.659 25.1976 282.537 24.8494V28.6985Z" fill="white"/>
<path d="M302.889 20.0846C304.506 18.4964 305.768 17.6378 307.618 17.6378C310.15 17.6378 311.047 19.0258 311.047 22.1546V35.7717H317.986V21.2579C317.986 15.3294 315.662 11.6997 310.378 11.6997C306.897 11.6997 304.326 13.4025 302.301 15.4009H302.111L301.608 12.2673H295.959V35.7717H302.898V20.0846H302.889Z" fill="white"/>
<path d="M109.307 77.6485C103.417 77.6485 99.5511 72.7693 99.5511 64.9472C99.5511 57.1251 103.417 52.4366 109.307 52.4366C111.897 52.4366 113.922 53.5288 115.526 55.2316L117.788 52.718C115.948 50.7291 113.031 48.9262 109.307 48.9262C101.249 48.9262 95.4531 55.0408 95.4531 65.0378C95.4531 75.0348 101.297 81.1494 108.933 81.1494C113.031 81.1494 116.095 79.4896 118.499 76.6469L116.237 74.2288C114.307 76.4085 112.139 77.6438 109.312 77.6438L109.307 77.6485Z" fill="white"/>
<path d="M134.806 56.9868C128.773 56.9868 123.499 61.3939 123.499 69.1158C123.499 76.8377 128.773 81.1542 134.806 81.1542C140.839 81.1542 146.118 76.7471 146.118 69.1158C146.118 61.4845 140.839 56.9868 134.806 56.9868ZM134.806 77.887C130.423 77.887 127.502 74.3814 127.502 69.1206C127.502 63.8597 130.423 60.2587 134.806 60.2587C139.188 60.2587 142.11 63.812 142.11 69.1206C142.11 74.4291 139.188 77.887 134.806 77.887Z" fill="white"/>
<path d="M170.454 55.7085L170.644 59.9248H170.549C168.524 58.079 166.404 56.9868 163.667 56.9868C158.251 56.9868 153.299 61.6323 153.299 69.1158C153.299 76.5992 157.255 81.1542 163.193 81.1542C166.067 81.1542 168.799 79.4944 170.687 77.5532H170.829L171.161 80.5866H174.363V46.8467H170.454V55.7085ZM170.454 74.4243C168.429 76.6994 166.309 77.8346 164.047 77.8346C159.854 77.8346 157.307 74.5674 157.307 69.0681C157.307 63.5688 160.513 60.3016 164.469 60.3016C166.447 60.3016 168.377 61.0123 170.454 62.9535V74.4195V74.4243Z" fill="white"/>
<path d="M193.24 56.9868C187.117 56.9868 181.553 61.537 181.553 69.0252C181.553 76.5134 187.017 81.1542 193.899 81.1542C197.575 81.1542 200.497 79.9236 202.759 78.4069L201.346 75.8504C199.273 77.1764 197.105 78.0301 194.373 78.0301C189.616 78.0301 185.936 75.383 185.471 70.1651H203.513C203.608 69.5498 203.703 68.6961 203.703 67.7946C203.703 61.3032 199.837 56.9916 193.24 56.9916V56.9868ZM185.566 67.1269C186.287 62.5863 189.583 60.0679 193.335 60.0679C197.086 60.0679 199.833 62.4098 200.174 67.1269H185.57H185.566Z" fill="white"/>
<path d="M279.264 56.9868C275.256 56.9868 271.395 58.7897 269.038 60.3016L270.594 62.9535C272.714 61.6276 275.635 60.2062 278.605 60.2062C283.035 60.2062 284.543 62.8581 284.68 65.987C272.856 66.9361 268.047 69.4449 268.047 74.6103C268.047 78.7312 271.58 81.1494 275.868 81.1494C279.069 81.1494 282.371 79.4467 284.865 77.453H285.008L285.34 80.5818H288.589V66.4639C288.589 60.7309 285.525 56.9868 279.259 56.9868H279.264ZM284.68 74.5674C282.043 76.7471 279.496 77.9776 276.907 77.9776C274.317 77.9776 271.912 76.9379 271.912 74.3289C271.912 71.2955 274.881 69.3543 284.68 68.5959V74.5674Z" fill="white"/>
<path d="M308.486 56.9868C305.796 56.9868 302.875 58.3604 300.807 60.4924H300.664L300.849 56.0376V46.8467H296.941V80.5866H300.052L300.427 78.0301H300.569C302.69 79.9713 305.422 81.1589 307.684 81.1589C313.105 81.1589 318.005 76.5611 318.005 68.6961C318.005 61.5846 314.661 56.9915 308.486 56.9915V56.9868ZM307.025 77.8393C305.374 77.8393 302.974 77.1287 300.849 75.1874V63.7214C303.159 61.3509 305.516 60.3064 307.542 60.3064C312.114 60.3064 313.997 63.6737 313.997 68.7438C313.997 74.4291 310.98 77.8441 307.025 77.8441V77.8393Z" fill="white"/>
<path d="M247.984 46.8181L236.638 81.2066H240.736L252.295 46.8181H247.984Z" fill="white"/>
<path d="M262.995 77.2241H247.168V80.587H262.995V77.2241Z" fill="white"/>
</g>
<defs>
<clipPath id="clip0_6065_2710">
<rect width="318" height="83" fill="white"/>
</clipPath>
</defs>
</svg>
