<?xml version="1.0" encoding="UTF-8"?>
<svg id="Layer_1" data-name="Layer 1" xmlns="http://www.w3.org/2000/svg" viewBox="0 0 841.89 595.28">
  <defs>
    <style>
      .cls-1 {
        fill: #f8f9f9;
      }

      .cls-2 {
        fill: #eca922;
      }

      .cls-3 {
        fill: #e9eced;
      }

      .cls-4 {
        fill: #fbd357;
      }

      .cls-5 {
        fill: #e64d3c;
      }

      .cls-6 {
        fill: #f2b81c;
      }

      .cls-7 {
        fill: #f1f3f3;
      }

      .cls-8 {
        fill: #e5ccb3;
      }

      .cls-9 {
        fill: #fee0c5;
      }

      .cls-10 {
        fill: #feeede;
      }

      .cls-11 {
        fill: #dcab28;
      }

      .cls-12 {
        fill: #e1e1e0;
      }

      .cls-13 {
        fill: #2d8b57;
      }

      .cls-14 {
        fill: #fffef0;
        font-family: NunitoSans-Bold, 'Nunito Sans';
        font-size: 20px;
      }
    </style>
  </defs>
  <g>
    <path class="cls-4" d="M312.35,273.32c.78-1.3,2.08-.82,3.17-.82,60.31-.03,120.63-.03,180.94-.02,.73,0,1.45,.11,2.18,.17,1.29,3.43,.46,7.14,1.37,10.62-.07,2.62-1.73,4.18-3.68,5.58-18.28,13.15-36.31,26.64-54.43,40.02-1.76,1.3-3.58,2.49-5.37,3.73-1.8,1.07-3.41,2.39-5.02,3.72-2.96,2.35-5.98,4.6-9.15,6.66-6.93,4.49-9.81,4.44-16.56-.42-25.82-19.03-51.72-37.94-77.55-56.95-5.39-3.96-10.87-7.85-15.9-12.28Z"/>
    <path class="cls-9" d="M608.56,384.57c-10.8-.29-21.7,.24-32.37-1.1-10.26-1.29-20.51-3.91-28.95-10.71-1.09-.88-2.17-1.4-3.53-1.39-4.23-4.48-6.48-10.52-11.81-14.22-5.13-3.57-10.62-5.75-16.77-6.44-6.63-1.09-12.66-3.88-18.77-6.48-2.17-1.17-4.4-2.27-6.32-3.84-1.29-1.05-3.03-1.95-2.44-4.16,1.99-1.26,3.96-.26,5.8,.29,4.65,1.39,4.98-2.75,6.73-5.03,1.59-2.07,.92-3.69-1.21-4.96-.73-.44-1.44-1.1-.42-2.02,3.09-1.38,6.02,.17,9.02,.48,1.37,.34,2.76,.5,4.17,.55,2.64,.25,3.65-.99,3.62-3.59-.07-6.27-.02-12.53,0-18.8-.06-2.02-.1-4.04,.13-6.06,.14-.8,.41-1.53,.97-2.13,1.3-.71,2.53-.83,3.61,.42-1.93,.79-2.77,2.04-2.63,4.31,.24,3.92,.21,7.88,.02,11.81-.16,3.4,.92,4.48,4.34,3.48,6.11-1.77,12.26-3.45,18.56-4.51,3.28-.55,6.17-.18,9.28,1.19,12.17,5.38,23.32,12.39,33.99,20.27,6.98,5.16,14.39,9.53,22.9,11.72,1.11,.29,2.32,.72,3.4,.55,4.36-.68,5.37,1.52,4.81,5.23-.84,5.57-1.69,11.13-2.54,16.7,2.72,5.99-.33,11.51-1.45,17.18-.18,.91-1.48,.73-2.14,1.26Z"/>
    <path class="cls-13" d="M621.72,337.38c11.35-.51,22.71-.85,34.04-1.64,3.67-.25,4.64,.54,4.59,4.29-.2,18.37-.14,36.74,0,55.12,.02,2.84-.72,3.98-3.55,3.39-13.68-2.04-27.36-4.08-41.03-6.12-2.08-9.48-.67-18.76,1.66-27.98,.65-7.51,1.3-15.03,1.93-22.54,.16-1.85-.14-3.91,2.37-4.52Z"/>
    <path class="cls-6" d="M516.4,401.08c-66.99,0-133.99-.02-200.98,.12-3.54,0-3.28-1.77-3.28-4.02,0-24.81-.03-49.62,0-74.43,.02-15.02,.14-30.05,.22-45.07,1.72-.75,3.2,.04,4.49,.95,5.61,3.94,11.41,7.61,16.73,11.96,.96,.78,2.29,1.53,1.51,3.2-2.15,1.76-4.45,2.7-7.27,1.59-1.54-.61-3.19-.04-4.78-.14-1.63-.1-2.48,.63-2.5,2.27-.04,3.35-.26,6.72,.11,10.05,.32,2.85,2.26,4.67,4.63,6.01,2.17,1.22,3.26,2.84,2.59,5.38-.65,2.45-1.84,4.33-4.72,4.3-1.53-.02-2.59,.48-2.6,2.19-.03,3.5-.34,7.01,.19,10.48,.4,2.64,2.25,4.36,4.47,5.64,2.12,1.21,3.33,2.81,2.67,5.36-.63,2.43-1.73,4.42-4.64,4.37-1.84-.03-2.69,.8-2.7,2.6-.02,3.21-.22,6.43,.12,9.62,.3,2.86,2.22,4.69,4.55,6.08,2.07,1.23,3.39,2.76,2.72,5.34-.63,2.44-1.75,4.37-4.64,4.39-4.41,.04-1.86,3.78-2.65,4.68,.48-1.63,2.13-2.94,4.84-2.77,.88,.05,2.12,.2,2.51-.44,2.71-4.37,8.17-5.86,10.73-10.26,1.03-1.77,2.53-2.49,4.56-3.02-2.56-1.18-3.86,.5-5.34,1.57-1.78,1.29-3.64,1.95-5.64,.53-1.99-1.42-1.89-3.89,.47-5.37,2.09-1.32,4.12-2.75,6.25-4.02,3.53-2.12,4.01-3.75,2.15-7.45-2.91-5.82-2.8-6.19,3.27-8.83,1.44-.63,2.55-1.44,2.96-2.97,.73-2.74,2.13-2.2,3.76-.85,2.23,1.84,5.9,2.66,4.79,6.85-.65,2.45-1.8,4.47-4.7,4.27-2.56-.18-3.41,1.01-3.38,3.32,.01,.73-.23,1.43-.4,2.15-.44,1.94-1.62,4.56,1.01,5.26,2.18,.58,4.99,.17,6.47-2.44,.21-.38,.44-.76,.66-1.14,2.9-5.02,7.15-9.06,11.97-12.03,2.3-1.42,4.31-2.46,6.72-.49,2.35,1.93,2.52,4.45,1.97,7.16-.15,.73-.5,1.36-.95,1.95-.42,.5-.91,.9-1.48,1.2-3.99,1.24-7.7,.66-11.14-1.83,1.88,1.17,4.12,2.08,3.52,4.82-.54,2.48-2.12,4.09-4.8,4.33-.58,.05-1.5-.17-1.68,.21-2.48,5.35-10.41,4.64-12.05,10.87-.25,.31-.55,.59-.86,.84-2.24,1.79-5.31,2.47-6.88,5.17-.62,.78-1.32,1.48-2.23,1.92-1.93,.54-4.28,.44-4.75,3.18-.73,1.12-1.71,1.91-2.98,2.33-3.64,.43-6.33,2.15-8.14,5.44-.88,1.6-2.4,2.79-3.66,4.12-.3,.5-.64,1.12,.23,1.28,1.43,.27,2.91,.12,4.37,.12,61.13,0,122.26,0,183.39,0,2.77,0,5.54,.03,8.31,.26,.55,.07,1.07,.24,1.56,.49,.56,.32,.69,.77,.39,1.34Z"/>
    <path class="cls-5" d="M520.03,295.39c-1.12,.08-2.25,.15-3.37,.23-4.53,1.76-8.06-.45-11.46-2.96-1.73-1.28-3.21-2.86-4.57-4.53-1.05-1.22-1.08-2.77-1.34-4.24-1.12-3.69-1.61-7.42-.65-11.23,4.5-10.71,11.71-15.39,21.06-13.7,8.31,1.51,14.54,7.94,15.29,15.78,.87,9.04-3.68,16.45-12.06,19.65-.95,.36-1.93,.67-2.89,1Z"/>
    <path class="cls-4" d="M511.15,152.03c-2.43,6.63-4.83,13.27-7.32,19.88-.52,1.39-.41,3.42-2.64,3.51-2.58,.1-2.36-2.24-2.89-3.71-2.3-6.43-4.45-12.91-7.27-19.45-.21,2.72-.44,5.44-.61,8.16-.25,3.93-.37,7.86-.71,11.78-.12,1.41,.48,3.58-2.09,3.54-2.79-.05-1.73-2.25-1.66-3.58,.26-5.38,.7-10.76,1.09-16.13,.19-2.61,.42-5.23,.61-7.84,.11-1.45-.09-3.02,2.1-3.1,1.85-.07,3.28,.07,4.01,2.32,2.31,7.04,4.87,14.01,7.58,21.7,2.51-6.8,4.84-13.09,7.16-19.38,.4-1.09,.75-2.21,1.19-3.29,.74-1.81,2.37-1.35,3.77-1.36,1.58,0,1.84,1.17,1.92,2.39,.59,8.72,1.16,17.44,1.73,26.16,.09,1.42-.49,2.2-2,2.19-1.84-.02-1.99-1.23-2.06-2.66-.34-6.97-.73-13.94-1.11-20.91-.27-.07-.53-.13-.8-.2Z"/>
    <path class="cls-8" d="M516.4,401.08c-.07-.23-.12-.47-.15-.72-.94-1.4-1.03-2.97-1.01-4.6,.14-12.07-.15-24.15,.07-36.21-.02-3.33,.24-6.65,.33-9.98,6.88,.87,13.14,3.36,18.36,7.9,4.34,3.78,7.71,8.4,9.7,13.9-1.11,.31-2.29,.47-3.31,.96-3.59,1.74-6.74,.97-9.75-1.36-4.13-3.19-8.3-6.33-13.22-10.07,0,2.89,0,5.11,0,7.34,0,9.48,.04,18.97-.03,28.45-.01,1.48,.78,3.26-.99,4.39Z"/>
    <path class="cls-4" d="M430.41,167.39c0,8.07-.32,8.44-8.55,8.64-6.54,.17-12.37-1.41-15.22-7.98-2.75-6.34-2.45-12.72,2.22-18.09,4.85-5.57,11.37-5.95,18.15-4.64,1.25,.24,2.26,.74,1.88,2.33-.45,1.85-1.64,1.03-2.76,.84-11.63-2.02-18.53,4.32-16.55,15.17,1.23,6.77,8.79,11.36,15.07,8.78,3.46-1.42,1.19-4.88,1.67-7.37,.41-2.11-1.14-2.21-2.74-2.28-1.27-.05-3.26,.78-3.32-1.6-.07-2.5,2-1.64,3.22-1.63,8.36,.03,6.75-1.03,6.94,7.82Z"/>
    <path class="cls-11" d="M335.15,293.47c-7.1-5.98-14.41-11.66-22.8-15.78,0-1.45,0-2.91-.01-4.36,5.93,2.31,10.3,6.91,15.32,10.54,18.08,13.1,36.1,26.3,54.1,39.52,8.18,6.01,16.25,12.18,24.37,18.28-1.76,1.43-3.28,.37-4.73-.54-1.46-.92-2.67-2.22-4.28-2.93-13.23-8.58-25.58-18.39-38.51-27.39-6.59-4.58-13.14-9.22-19.68-13.87-1.4-.99-3.16-1.62-3.77-3.48Z"/>
    <path class="cls-4" d="M456.31,164.8c-.07,7.04-4.41,11.52-11.01,11.39-6.41-.13-10.46-4.62-10.37-11.52,.09-6.97,4.47-11.47,11.08-11.38,6.46,.09,10.37,4.46,10.3,11.51Z"/>
    <path class="cls-4" d="M312.61,164.74c-.08,7.09-4.29,11.48-10.96,11.42-6.38-.06-10.48-4.56-10.44-11.45,.05-6.91,4.48-11.5,11.04-11.43,6.43,.07,10.43,4.5,10.35,11.45Z"/>
    <path class="cls-4" d="M539.02,167.58c0,1.31-.01,2.62,0,3.93,.05,4.1,.03,4.14-3.73,2.62-1.3-.52-1.78,.65-2.62,1.04-4.41,2.09-9.02,.93-10.55-2.73-1.67-4,.66-8.13,5.53-9.69,1.24-.4,2.58-.47,3.82-.84,1.19-.36,3.31,.88,3.35-1.55,.03-1.9-1.16-3.26-2.95-3.91-1.87-.69-3.7-.2-5.56,.29-.82,.22-2.05,1.23-2.59-.3-.56-1.58,.8-1.91,1.88-2.35,7.48-3.03,13.2,.68,13.37,8.69,.03,1.6,0,3.2,0,4.8h.02Z"/>
    <path class="cls-4" d="M384.24,165.49c-1.31,0-2.63-.09-3.93,.03-1.22,.11-2.9-.67-3.55,.79-.72,1.61,.29,3.12,1.36,4.34,2.54,2.93,5.84,2.85,9.27,2.24,1.02-.18,2.41-1.14,2.91,.61,.59,2.06-1.33,2.02-2.41,2.22-4.72,.88-9.36,1.01-12.89-3.1-2.8-3.27-3.19-9.78-.94-14.1,1.96-3.76,5.91-5.83,10.22-5.2,4.31,.62,6.54,3.42,7.51,7.47,.74,3.1,.4,5.23-3.61,4.7-1.29-.17-2.62-.03-3.93-.03v.02Z"/>
    <path class="cls-4" d="M336.45,164.92c0,2.91-.02,5.82,0,8.74,.02,2.16-2,2.93-2.69,1.77-1.82-3.08-3.09-.79-4.57-.09-5.04,2.39-9.98,.17-11.08-5.26-.96-4.74-.29-9.58-.41-14.38-.03-1.25,.66-1.81,1.89-1.86,1.44-.06,2.18,.53,2.17,2.02,0,3.64-.05,7.28,.04,10.92,.08,3.14,.9,5.89,4.75,6.11,3.27,.18,5.62-2.33,5.77-6.29,.13-3.49,.02-6.99,.04-10.49,0-1.15-.18-2.37,1.68-2.32,1.68,.05,2.32,.75,2.29,2.39-.06,2.91-.02,5.83-.02,8.74,.04,0,.08,0,.12,0Z"/>
    <path class="cls-4" d="M280.69,159.48c2.31-4.33,4.28-8.02,6.27-11.71,.54-1,.81-2.33,2.14-2.57,.81-.14,1.88-.2,2.49,.21,.99,.66,.09,1.55-.3,2.24-1.28,2.29-2.47,4.65-3.99,6.78-3.79,5.3-5.67,11.02-4.85,17.59,.19,1.52,.79,3.88-2.13,3.74-2.58-.13-2-2.32-1.76-3.66,1.5-8.73-3.32-15.31-7.18-22.28-.73-1.31-2.86-3.31-1.09-4.41,2.45-1.53,3.72,.85,4.73,2.95,1.7,3.54,3.56,7,5.67,11.13Z"/>
    <path class="cls-4" d="M360.32,171.61c2.02-5.76,3.72-10.39,5.26-15.07,.63-1.93,1.68-3.43,3.71-2.53,2.14,.95,.2,2.56-.19,3.66-1.85,5.23-3.94,10.37-5.95,15.54-.53,1.37-.99,2.69-2.95,2.65-1.9-.04-2.42-1.26-2.95-2.68-2.01-5.32-4.12-10.61-6.04-15.96-.34-.96-1.95-2.46,.07-3.25,1.71-.67,3.06,.08,3.7,1.99,1.61,4.84,3.29,9.66,5.34,15.66Z"/>
    <path class="cls-4" d="M462.68,164.53c-1.21-2.85,2.08-7.07-3.16-8.35-.6-.15-.62-1.76-.05-1.83,3.38-.4,2.87-2.95,3.23-5.17,.19-1.21,1.43-1.37,2.45-1.35,1.55,.02,1.4,1.27,1.28,2.23-.32,2.71,.47,4.2,3.52,3.8,1.02-.13,2.17,.04,2.05,1.54-.12,1.46-1.34,1.44-2.3,1.32-2.89-.38-3.46,1.1-3.3,3.58,.16,2.47,.05,4.96,.05,7.44,0,2.77,.06,5.47,4,5.29,.85-.04,1.33,.53,1.35,1.38,.03,1.08-.65,1.44-1.62,1.68-3.69,.94-6.92-.94-7.44-4.72-.32-2.29-.06-4.65-.06-6.84Z"/>
    <path class="cls-4" d="M560.08,159.45c0,4.53-.02,9.05,0,13.58,0,1.4-.06,2.7-1.96,2.72-1.9,.02-1.98-1.25-1.98-2.67,.02-9.05,0-18.11,0-27.16,0-1.21-.02-2.36,1.71-2.44,1.77-.08,2.26,.79,2.24,2.39-.05,4.53-.02,9.05-.02,13.58Z"/>
    <path class="cls-12" d="M617.42,364.44c-.16,9.35-1.87,18.61-1.66,27.98-1.38-3.55-5.16-4.9-7.2-7.84,2.87-4.14,2.39-9.13,3.46-13.73,.35-1.5,.1-3.14,.13-4.71,2.53,1.83,4.09,.67,5.27-1.7Z"/>
    <path class="cls-4" d="M545.41,164.88c0-2.92,0-5.84,0-8.75,0-1.25,.07-2.29,1.79-2.33,1.74-.03,2.32,.79,2.31,2.37-.02,5.84-.01,11.67-.02,17.51,0,1.39-.6,2.16-2.09,2.19-1.58,.02-1.98-.88-1.97-2.23,.01-2.92,0-5.84,0-8.75h-.02Z"/>
    <path class="cls-4" d="M345.7,149.93c-.71,1.56,1.01,5.2-1.53,5.2-2.74,0-1.42-3.68-1.92-5.73-.2-.83-.12-1.73-.14-2.6-.02-1.22,.05-2.3,1.75-2.35,1.91-.05,2.1,1.1,2.01,2.54-.05,.87-.1,1.73-.17,2.93Z"/>
    <path class="cls-4" d="M549.83,147.34c-.07,1.64-.95,2.45-2.46,2.48-1.66,.04-2.3-1.07-2.31-2.52-.01-1.36,.84-2.14,2.17-2.19,1.52-.05,2.42,.75,2.61,2.23Z"/>
    <path class="cls-2" d="M397.37,337.29c3.37,.56,4.81,4.99,8.76,4.38,7.5,4.97,8.93,4.85,16.46-.07,3.02-1.98,5.48-4.75,8.9-6.13,13.03,12.56,28.57,21.84,42.7,32.95,13.16,10.34,27.4,19.18,40.29,29.84,.64,.53,1.55,.93,1.14,2.05h-201.94c-.05-.34-.1-.67-.16-1.01,1.66-1.1,3.31-2.21,4.97-3.31,3.7-3.05,7.05-6.55,11.39-8.76,.88-.59,1.75-1.17,2.63-1.76,1.29-1.86,3.18-2.81,5.25-3.5,.59-.59,1.17-1.17,1.76-1.76,2-2.2,4.81-3.32,7.01-5.25,6.75-6.42,15.33-10.44,22.11-16.82,1.43-1.34,3.37-1.63,5.05-2.46,.29-.29,.59-.59,.88-.88,7.18-6.38,14.61-12.43,22.79-17.52Z"/>
    <path class="cls-6" d="M515.62,400.31c-23.97-17.68-47.93-35.36-71.9-53.04-2.45-1.8-4.81-3.76-7.4-5.33-2.55-1.56-4.23-3.57-4.84-6.48,.97-1.8,2.71-2.61,4.41-3.47,5.17-1.23,8.5-5.38,12.58-8.24,16.55-11.62,32.86-23.58,49.31-35.35,.9-.65,1.68-1.72,3.06-1.11,4.36,4.49,9,8.48,15.81,8.31-.07,.45-.14,.89-.21,1.34-1.61,.36-2.95,.81-3.03,2.97-.06,1.48-.89,2.87-2.71,2.9-1.79,.03-3.02-.9-3.76-2.51-.24-.53,.05,.14-.15-.41-3.01-8.35-5.45-8.82-12.89-2.58-3.25,2.72-6.22,5.68-10.17,7.36-2.85,1.22-4.33,3.4-4.51,6.42-.22,3.63-2.15,4.69-5.57,4.28-5.31-.63-5.36-.54-7,4.6-.6,1.9-1.54,3.21-3.71,2.83-2.08-.36-3.21-.34-3.02,2.51,.22,3.11-2.32,4.26-4.76,3.16-3.79-1.71-6.13-.19-8.31,2.5-1.37,1.69-4.29,2.52-4.39,4.59-.1,2.2,2.75,3.24,4.41,4.45,4.27,3.12,7,7.85,11.93,10.36,2.51,1.28,3.19,5.02,5.77,6.92,1.66,1.22,2.76,2.61,4.68,.5,1.04-1.15,2.39-1.13,3.45,.07,4.56,5.19,10.41,9.21,13.83,15.46,1.02,1.86,2.94,2.79,5.24,2.5,.87-.11,1.75-.17,2.62-.08,4.07,.39,5.19,2.05,4.02,6.15,3.8-1.44,6.18-.24,7.47,3.6,.86,2.56,3.8,3.54,6.31,2.37,1.92-.9,1.04-2.17,.19-3.15-1.36-1.58-1.49-3.03-.2-4.69,2.26-2.9,1.24-4.93-1.57-6.86-3.23-2.22-3.17-2.61,.19-4.62,2.78-1.67,2.48-4.77,3.67-7.17,.57-1.14-.18-3.18,2.15-3.09-.12,14.03-.24,28.06-.36,42.08-.21,0-.43-.03-.64-.06Z"/>
    <path class="cls-2" d="M500.85,287.3c-18.36,13.4-36.67,26.89-55.52,39.62-2.15,1.46-4.1,3.22-6.12,4.88-1.08,.89-2.11,1.7-3.32,.2,15.51-11.4,31.03-22.77,46.51-34.21,4.64-3.43,8.95-7.32,14-10.21,1.34-.77,2.51-2.01,2.88-3.7,.85,.99,1.42,2.11,1.56,3.42Z"/>
    <path class="cls-6" d="M516.62,358.28c-1.64,2.1-1.71,4.9-2.29,7.22-.8,3.23-1.96,4.58-5.13,4.36-.04,2.26,1.89,2.17,2.93,2.91,3.26,2.33,3.7,4.47,1.18,7.56-1.06,1.3-2.53,2.31,.01,3.57,1.8,.9,1.71,2.64,1.29,4.22-.53,1.99-2.2,.57-3.27,.91-4.2,1.35-6.29,.07-7.07-4.41-.44-2.54-2.56-3.43-4.99-1.64-1.09,.8-2.25,1-3.09-.13-1.06-1.44,.55-1.44,1.24-2.03,1.79-1.52,1.22-2.62-.73-3.52-1.26-.58-2.61-.87-3.83-.51-4.77,1.38-6.15-2.34-8.92-4.87-3.29-3-3.73-9.02-9.57-9.3-1.64-.08-1.57-1.41-1.66-2.59-.08-1.07-.37-2.1-1.63-2.25-1.05-.12-1.53,.71-1.79,1.58-.52,1.76-2.39,2.14-2.97,1.18-1.81-3-6.03-3.77-6.77-7.62-.11-.55-.27-1.44-.61-1.56-7.24-2.42-10.23-10.01-16.58-13.5-2.74-1.51-3.11-2.86,.11-4.46,1.5-.75,2.71-2.2,3.86-3.5,2.55-2.89,5.06-5.42,9.1-2.21,1.11,.88,2.25,.13,3.19-.58,.8-.61,.85-1.38,.3-2.29-2.44-4.04,.9-4.01,2.9-3.31,3.29,1.16,3.72-.08,3.97-2.86,.35-3.97,2.8-5.74,6.61-4.67,3.69,1.04,5.88,.83,5.79-3.84-.09-4.38,3.48-5.98,6.76-7.38,2.75-1.17,5.06-2.77,6.82-5.13,2.5-3.36,6.45-4.35,9.85-6.23,.96-.53,2-.34,2.19,.54,.64,2.92,4.53,3.99,4.01,7.64-.24,1.69,1.54,2.52,3.04,2.43,1.7-.1,2-2.11,1.82-3.03-1.08-5.3,1.99-2.41,3.78-2.05,0,2.05,.01,4.11,.02,6.16-1.31,2.05-1.53,4.37-1.19,6.64,.42,2.85-.68,4.4-3.98,5.12,2.46,1.8,3.99,3.8,3.53,6.64-.36,2.24-1.32,4.09-3.5,5.09-1.24,.13-2.51,.49-3.67-.32-.91-1.12-.27-2.52-.61-3.76-5.29,2.78-7.14,2.56-9.21-1.21-.64,3-3.27,2.87-5.33,3.62-1.28,.25-2.54,.32-3.72-.36-1.12-.86,.32-1.66,.33-2.62-4.66,2.05-7.13,6.19-6.7,10.66,.19,2.02,.85,3.98,.63,6.04-.48,4.54,3.06,7.3,7.39,5.54,1.98-.8,3.85-1.12,5.9-.76,5.03,1.81,10.09,3.56,15.08,5.46,1.41,.53,2.76,.85,4.23,.67,2.48,2.67,.61,5.81,.97,8.72Z"/>
    <path class="cls-10" d="M488.51,324.04c1.49-.07,2.99-.14,4.48-.21,1.81-.04,3.76-.72,5.18,1.11,5.14,2.56,4.4,2.95,2.41,8.2-2.41,6.36-6.03,5.14-10.46,3.65-.8-.27-1.69-.25-2.54-.37-3.73-.59-3.58-3.59-3.66-6.23-.09-3.14,.99-5.66,4.6-6.15Z"/>
    <path class="cls-6" d="M488.51,324.04c-4.9,4.04-5.16,7.48-.94,12.38,1.91,3.6,6.07,4.39,8.76,7.02-4.33,1.4-8.59,3.86-13.2,.81-1.16-.76-3-1.14-1.82-3.12,1.58-2.67,.7-5.47,.06-7.97-1.34-5.27,2.03-8.18,4.83-11.5,.09-.11,.2-.21,.33-.29,1.62-1.02,3.81-1.46,4.68,.15,1.44,2.68-2.38,.97-2.69,2.51Z"/>
    <path class="cls-6" d="M511.33,326.6c.86-1.65,2.04-3.21,2.5-4.96,1.03-3.92-2.22-5.39-4.9-6.67,.58-1.47,1.39-1.34,2.06-1.32,2.76,.06,3.94-.69,3.12-3.87-.62-2.41-.49-5.18,2.35-6.66,.09,6.34,.22,12.68,.27,19.02,.04,5.15,0,5.15-5.4,4.47Z"/>
    <path class="cls-6" d="M498.16,324.95c-1.73-.37-3.45-.74-5.18-1.11,2.03-.78,4.78-.78,4.34-4.18-.09-.71,.25-1.55,1.25-1.23,.83,.27,1.03,.96,.46,1.69-.88,1.13-.97,2.29,.46,2.79,1.36,.48,2.83,1.79,4.38,.28,.62-.6,1.24-1.21,1.89-1.78,.82-.73,1.9-1.07,2.8-.53,1.43,.86,0,1.65-.27,2.49-.31,.94-.44,1.94-.65,2.92-3.15-.55-6.21-1.71-9.49-1.33Z"/>
    <path class="cls-6" d="M397.37,337.29c-7.06,6.54-14.68,12.34-22.79,17.52,1.07-1.72,1.1-3.66,.79-5.52-.53-3.25-3.88-4.5-6.36-2.49-.45,.37-.86,1.13-1.29,1.13-8.88,.02-9.14,7.6-11.96,13.16-1.48,2.92-5.53,2.59-7.99,2.55-1.93-.03-3.36-3.63-1.6-6.51,.44-.71,.83-1.73,.67-2.49-.88-4.28,.41-5.69,4.79-4.36,1.98,.6,2.55-1.32,3.06-2.93,.51-1.59,1.15-3.07-.79-4.17-1.75-.99-3.88-1.47-4.87-4.65-.49,4.03-1.34,6.3-5.02,6.75-4.1,.49-4.81,2.84-2.31,6.03,3.19,4.06,2.39,7.49-2.09,9.75-2.42,1.23-4.19,3.49-6.94,4.35-1.31,.41-1.4,1.95-.51,2.93,1.33,1.45,2.98,1.83,4.57,.24,2.07-2.07,4.11-4.06,7.43-2.39,.79,.4,1.93,.55,1.9,1.49-.04,1.52-1.45,1.16-2.37,1.12-2.55-.11-4.32,.49-4.24,3.54,.04,1.52-.83,2.58-2.39,2.55-2.96-.05-4.48,1.78-5.66,4.07-1.4,2.7-2.99,4.33-6.56,3.34-2.27-.63-3.89,.83-3.15,3.62,.24,.91,.27,1.85-.95,1.94-1.17,.09-1.36-.88-1.37-1.79-.03-1.9,0-3.79-.03-5.69-.04-1.98,.45-3.19,2.81-2.29,2.46,.93,3.66-.11,4.49-2.55,.82-2.38,.57-3.78-1.82-4.9-3.89-1.84-5.89-4.87-5.52-9.39,.24-3.04,.06-6.12,.05-9.19,0-1.85,.63-2.85,2.65-2.06,2.76,1.07,3.86-.25,4.75-2.76,.91-2.57,0-3.69-2.18-4.76-3.71-1.83-5.69-4.75-5.26-9.11,.21-2.17,.02-4.37,.04-6.56,.03-2.76-1.01-6.32,4.22-4.56,1.95,.66,2.56-1.3,3.07-2.91,.5-1.58,1.26-3.29-.8-4.13-6.15-2.51-7.12-7.44-6.5-13.22,.05-.43,0-.87,0-1.31,0-7.18,2.75-9.18,9.31-6.08,2.85,1.35,4.15-1.96,6.47-1.13,12.29,7.47,23.58,16.39,35.39,24.55,9.06,6.26,17.89,12.84,26.82,19.27Z"/>
    <path class="cls-6" d="M373.7,355.68c-7.73,6.35-16.4,11.44-23.97,18.01-.82,.71-2.12,.86-3.2,1.26,2-3.83,3.49-8.24,9.09-7.97,.14,0,.41-.04,.41-.08,.5-4.89,5.04-3.85,7.77-5.55,2.96-1.84,2.16-4.64-1.19-5.62-1.1-.32-3.25,.25-2.52-1.78,.59-1.63,2.85-1.3,3.74-.36,2.9,3.06,6.5,1.8,9.86,2.08Z"/>
    <path class="cls-6" d="M329.89,387.23c-3.1,3.83-7.25,6.29-11.39,8.76,3.28-3.6,4.83-9.44,11.39-8.76Z"/>
    <path class="cls-6" d="M346.54,374.96c-1.8,2.47-4.21,4.12-7.01,5.25,.96-3.59,4.48-3.76,7.01-5.25Z"/>
    <path class="cls-6" d="M337.77,381.97c-1.73,1.2-2.9,3.24-5.25,3.5-.56-4.63,2.85-3.31,5.25-3.5Z"/>
    <path class="cls-1" d="M452.39,164.76c0,4.91-2.97,8.61-6.88,8.56-3.65-.05-6.54-3.77-6.56-8.44-.02-5.01,2.79-8.7,6.68-8.76,3.87-.06,6.75,3.62,6.76,8.64Z"/>
    <path class="cls-1" d="M308.67,164.71c-.04,5.02-2.92,8.62-6.85,8.56-3.87-.06-6.71-3.84-6.61-8.79,.1-4.73,2.95-8.32,6.65-8.37,3.93-.05,6.84,3.63,6.81,8.59Z"/>
    <path class="cls-7" d="M532.72,164.57c2.42-.43,2.3,1.26,2.29,2.97-.02,3.51-1.78,5.48-5.23,5.75-2.43,.19-3.9-1.15-4.06-3.57-.2-2.97,2.89-5.22,7-5.14Z"/>
    <path class="cls-3" d="M382.61,163.11c-2.12-1.09-4.98,1.19-5.81-1.88-.6-2.21,3.15-5.32,5.89-5.22,3.08,.11,5.21,1.89,5.07,4.82-.2,4.11-3.9,.45-5.14,2.28Z"/>
    <path class="cls-6" d="M513.32,394.96c-1.18-.13-2.16-.88-2.43-1.99-.39-1.6,1.16-1.78,2.15-2.02,1.3-.32,1.73,.64,1.72,1.79,0,1,.07,2.08-1.44,2.23Z"/>
    <path class="cls-6" d="M484.34,319.55c-.19-2.92-2.18-3.92-3.94-4.82,.25-1.38,1.11-1.16,1.72-1.08,2.2,.31,5.52-1.25,6.38,1,.97,2.53-3.56,2.16-4.15,4.9Z"/>
  </g>
  <text class="cls-14" transform="translate(511.12 284.44)"><tspan x="0" y="0">1</tspan></text>
</svg>